<?xml version="1.0" encoding="utf-8" standalone="no"?>
<!DOCTYPE svg PUBLIC "-//W3C//DTD SVG 1.1//EN"
  "http://www.w3.org/Graphics/SVG/1.1/DTD/svg11.dtd">
<!-- Created with matplotlib (http://matplotlib.org/) -->
<svg height="432pt" version="1.1" viewBox="0 0 720 432" width="720pt" xmlns="http://www.w3.org/2000/svg" xmlns:xlink="http://www.w3.org/1999/xlink">
 <defs>
  <style type="text/css">
*{stroke-linecap:butt;stroke-linejoin:round;}
  </style>
 </defs>
 <g id="figure_1">
  <g id="patch_1">
   <path d="M 0 432 
L 720 432 
L 720 0 
L 0 0 
z
" style="fill:#ffffff;"/>
  </g>
  <g id="axes_1">
   <g id="patch_2">
    <path d="M 90 345.6 
L 648 345.6 
L 648 51.84 
L 90 51.84 
z
" style="fill:#ffffff;"/>
   </g>
   <g id="PolyCollection_1">
    <path clip-path="url(#p3c4c3c74cc)" d="M 115.363636 215.856 
L 115.363636 311.328 
L 116.764942 301.536 
L 118.166248 301.536 
L 119.567554 301.536 
L 120.96886 306.432 
L 122.370166 313.776 
L 123.771472 296.64 
L 125.172777 318.672 
L 126.574083 303.984 
L 127.975389 306.432 
L 129.376695 296.64 
L 130.778001 284.4 
L 132.179307 301.536 
L 133.580613 296.64 
L 134.981919 296.64 
L 136.383225 303.984 
L 137.78453 301.536 
L 139.185836 301.536 
L 140.587142 303.984 
L 141.988448 296.64 
L 143.389754 301.536 
L 144.79106 286.848 
L 146.192366 303.984 
L 147.593672 269.712 
L 148.994977 274.608 
L 150.396283 289.296 
L 151.797589 301.536 
L 153.198895 286.848 
L 154.600201 284.4 
L 156.001507 242.784 
L 157.402813 267.264 
L 158.804119 289.296 
L 160.205424 308.88 
L 161.60673 306.432 
L 163.008036 311.328 
L 164.409342 303.984 
L 165.810648 284.4 
L 167.211954 284.4 
L 168.61326 264.816 
L 170.014566 274.608 
L 171.415871 257.472 
L 172.817177 279.504 
L 174.218483 279.504 
L 175.619789 286.848 
L 177.021095 279.504 
L 178.422401 279.504 
L 182.626318 279.504 
L 184.027624 267.264 
L 185.42893 279.504 
L 186.830236 284.4 
L 188.231542 284.4 
L 189.632848 279.504 
L 191.034154 279.504 
L 192.43546 279.504 
L 193.836765 267.264 
L 195.238071 240.336 
L 196.639377 259.92 
L 198.040683 264.816 
L 199.441989 279.504 
L 200.843295 274.608 
L 202.244601 252.576 
L 203.645907 269.712 
L 205.047212 247.68 
L 206.448518 242.784 
L 207.849824 262.368 
L 209.25113 252.576 
L 210.652436 257.472 
L 212.053742 252.576 
L 213.455048 247.68 
L 214.856354 267.264 
L 216.257659 279.504 
L 217.658965 252.576 
L 219.060271 267.264 
L 220.461577 230.544 
L 221.862883 264.816 
L 223.264189 281.952 
L 224.665495 274.608 
L 226.066801 262.368 
L 227.468106 257.472 
L 228.869412 259.92 
L 230.270718 262.368 
L 231.672024 269.712 
L 233.07333 240.336 
L 234.474636 247.68 
L 235.875942 279.504 
L 237.277248 247.68 
L 238.678553 247.68 
L 240.079859 264.816 
L 241.481165 259.92 
L 242.882471 264.816 
L 244.283777 286.848 
L 245.685083 257.472 
L 247.086389 279.504 
L 248.487695 252.576 
L 249.889001 252.576 
L 251.290306 257.472 
L 252.691612 230.544 
L 254.092918 245.232 
L 255.494224 237.888 
L 256.89553 242.784 
L 258.296836 242.784 
L 259.698142 240.336 
L 261.099448 242.784 
L 262.500753 240.336 
L 263.902059 242.784 
L 265.303365 220.752 
L 266.704671 240.336 
L 268.105977 230.544 
L 269.507283 240.336 
L 270.908589 230.544 
L 272.309895 259.92 
L 273.7112 252.576 
L 275.112506 242.784 
L 276.513812 252.576 
L 277.915118 267.264 
L 279.316424 252.576 
L 280.71773 235.44 
L 282.119036 237.888 
L 283.520342 240.336 
L 284.921647 237.888 
L 286.322953 235.44 
L 287.724259 198.72 
L 289.125565 215.856 
L 290.526871 252.576 
L 291.928177 259.92 
L 293.329483 247.68 
L 294.730789 215.856 
L 297.5334 225.648 
L 298.934706 235.44 
L 300.336012 235.44 
L 301.737318 247.68 
L 303.138624 237.888 
L 304.53993 220.752 
L 305.941236 203.616 
L 307.342541 201.168 
L 308.743847 220.752 
L 310.145153 230.544 
L 311.546459 247.68 
L 312.947765 242.784 
L 314.349071 247.68 
L 315.750377 215.856 
L 317.151683 220.752 
L 318.552988 213.408 
L 319.954294 215.856 
L 321.3556 198.72 
L 322.756906 230.544 
L 324.158212 235.44 
L 325.559518 203.616 
L 326.960824 235.44 
L 328.36213 213.408 
L 329.763435 230.544 
L 331.164741 220.752 
L 332.566047 218.304 
L 333.967353 218.304 
L 335.368659 215.856 
L 336.769965 196.272 
L 338.171271 193.824 
L 339.572577 193.824 
L 340.973882 191.376 
L 342.375188 203.616 
L 343.776494 186.48 
L 345.1778 218.304 
L 346.579106 213.408 
L 347.980412 191.376 
L 349.381718 213.408 
L 350.783024 223.2 
L 352.184329 223.2 
L 353.585635 215.856 
L 354.986941 213.408 
L 356.388247 208.512 
L 357.789553 213.408 
L 359.190859 213.408 
L 360.592165 201.168 
L 361.993471 176.688 
L 363.394776 213.408 
L 364.796082 203.616 
L 366.197388 208.512 
L 367.598694 203.616 
L 369 179.136 
L 370.401306 191.376 
L 371.802612 191.376 
L 373.203918 186.48 
L 374.605224 186.48 
L 376.006529 186.48 
L 377.407835 174.24 
L 378.809141 181.584 
L 380.210447 191.376 
L 381.611753 191.376 
L 383.013059 201.168 
L 384.414365 201.168 
L 385.815671 196.272 
L 387.216976 164.448 
L 388.618282 171.792 
L 390.019588 176.688 
L 391.420894 191.376 
L 392.8222 196.272 
L 394.223506 186.48 
L 395.624812 198.72 
L 397.026118 193.824 
L 398.427423 198.72 
L 399.828729 193.824 
L 401.230035 203.616 
L 402.631341 186.48 
L 404.032647 191.376 
L 405.433953 171.792 
L 406.835259 169.344 
L 408.236565 186.48 
L 409.63787 186.48 
L 411.039176 181.584 
L 412.440482 186.48 
L 413.841788 186.48 
L 415.243094 203.616 
L 416.6444 213.408 
L 418.045706 208.512 
L 419.447012 208.512 
L 420.848317 208.512 
L 422.249623 208.512 
L 423.650929 196.272 
L 425.052235 201.168 
L 426.453541 191.376 
L 427.854847 191.376 
L 429.256153 186.48 
L 430.657459 196.272 
L 432.058764 208.512 
L 433.46007 208.512 
L 434.861376 213.408 
L 436.262682 191.376 
L 437.663988 208.512 
L 439.065294 208.512 
L 440.4666 220.752 
L 441.867906 208.512 
L 443.269211 196.272 
L 444.670517 208.512 
L 446.071823 213.408 
L 447.473129 213.408 
L 448.874435 220.752 
L 450.275741 213.408 
L 451.677047 215.856 
L 453.078353 208.512 
L 454.479658 191.376 
L 455.880964 215.856 
L 457.28227 203.616 
L 458.683576 203.616 
L 460.084882 213.408 
L 461.486188 215.856 
L 462.887494 213.408 
L 464.2888 196.272 
L 465.690105 186.48 
L 467.091411 208.512 
L 468.492717 218.304 
L 469.894023 218.304 
L 471.295329 213.408 
L 472.696635 213.408 
L 474.097941 201.168 
L 475.499247 193.824 
L 476.900552 193.824 
L 478.301858 193.824 
L 479.703164 191.376 
L 481.10447 225.648 
L 482.505776 220.752 
L 483.907082 213.408 
L 485.308388 220.752 
L 486.709694 223.2 
L 488.110999 235.44 
L 489.512305 198.72 
L 490.913611 213.408 
L 492.314917 223.2 
L 493.716223 245.232 
L 495.117529 230.544 
L 496.518835 245.232 
L 497.920141 240.336 
L 499.321447 245.232 
L 500.722752 257.472 
L 502.124058 245.232 
L 503.525364 240.336 
L 504.92667 240.336 
L 506.327976 235.44 
L 507.729282 235.44 
L 509.130588 235.44 
L 510.531894 242.784 
L 511.933199 247.68 
L 513.334505 242.784 
L 514.735811 257.472 
L 516.137117 257.472 
L 517.538423 220.752 
L 518.939729 252.576 
L 520.341035 247.68 
L 521.742341 252.576 
L 523.143646 240.336 
L 524.544952 242.784 
L 525.946258 245.232 
L 527.347564 257.472 
L 528.74887 257.472 
L 530.150176 252.576 
L 531.551482 215.856 
L 532.952788 242.784 
L 534.354093 262.368 
L 535.755399 262.368 
L 537.156705 264.816 
L 538.558011 259.92 
L 539.959317 252.576 
L 541.360623 257.472 
L 542.761929 279.504 
L 544.163235 269.712 
L 545.56454 291.744 
L 546.965846 279.504 
L 548.367152 269.712 
L 549.768458 267.264 
L 551.169764 267.264 
L 552.57107 259.92 
L 553.972376 264.816 
L 555.373682 264.816 
L 556.774987 274.608 
L 558.176293 264.816 
L 559.577599 252.576 
L 560.978905 279.504 
L 562.380211 281.952 
L 563.781517 303.984 
L 565.182823 301.536 
L 566.584129 281.952 
L 567.985434 279.504 
L 569.38674 267.264 
L 570.788046 281.952 
L 572.189352 274.608 
L 573.590658 296.64 
L 574.991964 296.64 
L 576.39327 291.744 
L 577.794576 286.848 
L 579.195881 289.296 
L 580.597187 262.368 
L 581.998493 242.784 
L 583.399799 274.608 
L 584.801105 262.368 
L 586.202411 247.68 
L 587.603717 252.576 
L 589.005023 257.472 
L 590.406328 267.264 
L 591.807634 274.608 
L 593.20894 274.608 
L 594.610246 279.504 
L 596.011552 279.504 
L 597.412858 269.712 
L 598.814164 257.472 
L 600.21547 279.504 
L 601.616775 291.744 
L 603.018081 291.744 
L 604.419387 286.848 
L 605.820693 279.504 
L 607.221999 289.296 
L 608.623305 289.296 
L 610.024611 281.952 
L 612.827223 274.608 
L 614.228528 284.4 
L 615.629834 281.952 
L 617.03114 269.712 
L 618.432446 286.848 
L 619.833752 303.984 
L 621.235058 308.88 
L 622.636364 318.672 
L 622.636364 252.576 
L 622.636364 252.576 
L 621.235058 247.68 
L 619.833752 257.472 
L 618.432446 245.232 
L 617.03114 240.336 
L 615.629834 223.2 
L 614.228528 203.616 
L 612.827223 220.752 
L 610.024611 279.504 
L 608.623305 242.784 
L 607.221999 237.888 
L 605.820693 240.336 
L 604.419387 252.576 
L 603.018081 245.232 
L 601.616775 237.888 
L 600.21547 230.544 
L 598.814164 237.888 
L 597.412858 218.304 
L 596.011552 223.2 
L 594.610246 208.512 
L 593.20894 208.512 
L 591.807634 215.856 
L 590.406328 215.856 
L 589.005023 223.2 
L 587.603717 215.856 
L 586.202411 223.2 
L 584.801105 247.68 
L 583.399799 220.752 
L 581.998493 208.512 
L 580.597187 181.584 
L 579.195881 198.72 
L 577.794576 193.824 
L 576.39327 198.72 
L 574.991964 208.512 
L 573.590658 213.408 
L 572.189352 213.408 
L 570.788046 213.408 
L 569.38674 203.616 
L 567.985434 208.512 
L 566.584129 203.616 
L 565.182823 215.856 
L 563.781517 218.304 
L 562.380211 218.304 
L 560.978905 196.272 
L 559.577599 191.376 
L 558.176293 186.48 
L 556.774987 193.824 
L 555.373682 203.616 
L 553.972376 171.792 
L 552.57107 174.24 
L 551.169764 169.344 
L 549.768458 174.24 
L 548.367152 174.24 
L 546.965846 181.584 
L 545.56454 201.168 
L 544.163235 213.408 
L 542.761929 208.512 
L 541.360623 215.856 
L 539.959317 181.584 
L 538.558011 164.448 
L 537.156705 169.344 
L 535.755399 176.688 
L 534.354093 186.48 
L 532.952788 181.584 
L 531.551482 164.448 
L 530.150176 149.76 
L 528.74887 154.656 
L 527.347564 164.448 
L 525.946258 171.792 
L 524.544952 154.656 
L 523.143646 157.104 
L 521.742341 164.448 
L 520.341035 171.792 
L 518.939729 171.792 
L 517.538423 164.448 
L 516.137117 154.656 
L 514.735811 159.552 
L 513.334505 142.416 
L 511.933199 147.312 
L 510.531894 149.76 
L 509.130588 142.416 
L 507.729282 147.312 
L 506.327976 137.52 
L 504.92667 137.52 
L 503.525364 137.52 
L 502.124058 142.416 
L 500.722752 147.312 
L 499.321447 159.552 
L 497.920141 154.656 
L 496.518835 169.344 
L 495.117529 169.344 
L 493.716223 176.688 
L 492.314917 181.584 
L 490.913611 149.76 
L 489.512305 135.072 
L 488.110999 130.176 
L 486.709694 132.624 
L 485.308388 137.52 
L 483.907082 147.312 
L 482.505776 137.52 
L 481.10447 147.312 
L 479.703164 142.416 
L 478.301858 120.384 
L 476.900552 120.384 
L 475.499247 115.488 
L 474.097941 120.384 
L 472.696635 125.28 
L 471.295329 125.28 
L 469.894023 127.728 
L 468.492717 132.624 
L 467.091411 142.416 
L 465.690105 137.52 
L 464.2888 125.28 
L 462.887494 125.28 
L 461.486188 127.728 
L 460.084882 125.28 
L 458.683576 120.384 
L 457.28227 120.384 
L 455.880964 120.384 
L 454.479658 113.04 
L 453.078353 113.04 
L 451.677047 113.04 
L 450.275741 120.384 
L 448.874435 127.728 
L 447.473129 132.624 
L 446.071823 132.624 
L 444.670517 135.072 
L 443.269211 132.624 
L 441.867906 125.28 
L 440.4666 135.072 
L 439.065294 147.312 
L 437.663988 130.176 
L 436.262682 120.384 
L 434.861376 110.592 
L 433.46007 115.488 
L 432.058764 120.384 
L 430.657459 125.28 
L 429.256153 125.28 
L 427.854847 125.28 
L 426.453541 127.728 
L 425.052235 120.384 
L 423.650929 120.384 
L 422.249623 125.28 
L 420.848317 127.728 
L 419.447012 130.176 
L 418.045706 130.176 
L 416.6444 135.072 
L 415.243094 164.448 
L 413.841788 127.728 
L 412.440482 105.696 
L 411.039176 110.592 
L 409.63787 110.592 
L 408.236565 120.384 
L 406.835259 142.416 
L 405.433953 108.144 
L 404.032647 110.592 
L 402.631341 103.248 
L 401.230035 103.248 
L 399.828729 105.696 
L 398.427423 120.384 
L 397.026118 127.728 
L 395.624812 125.28 
L 394.223506 125.28 
L 392.8222 120.384 
L 391.420894 115.488 
L 390.019588 115.488 
L 388.618282 120.384 
L 387.216976 115.488 
L 385.815671 98.352 
L 384.414365 115.488 
L 383.013059 130.176 
L 381.611753 120.384 
L 380.210447 110.592 
L 378.809141 108.144 
L 377.407835 110.592 
L 376.006529 113.04 
L 374.605224 113.04 
L 373.203918 113.04 
L 371.802612 105.696 
L 370.401306 103.248 
L 369 103.248 
L 367.598694 103.248 
L 366.197388 105.696 
L 364.796082 113.04 
L 363.394776 125.28 
L 361.993471 147.312 
L 360.592165 115.488 
L 359.190859 113.04 
L 357.789553 120.384 
L 356.388247 120.384 
L 354.986941 110.592 
L 353.585635 120.384 
L 352.184329 132.624 
L 350.783024 149.76 
L 349.381718 147.312 
L 347.980412 149.76 
L 346.579106 137.52 
L 345.1778 142.416 
L 343.776494 130.176 
L 342.375188 120.384 
L 340.973882 120.384 
L 339.572577 115.488 
L 338.171271 105.696 
L 336.769965 110.592 
L 335.368659 120.384 
L 333.967353 120.384 
L 332.566047 125.28 
L 331.164741 115.488 
L 329.763435 135.072 
L 328.36213 132.624 
L 326.960824 132.624 
L 325.559518 137.52 
L 324.158212 130.176 
L 322.756906 142.416 
L 321.3556 130.176 
L 319.954294 120.384 
L 318.552988 115.488 
L 317.151683 130.176 
L 315.750377 142.416 
L 314.349071 154.656 
L 312.947765 181.584 
L 311.546459 191.376 
L 310.145153 191.376 
L 308.743847 154.656 
L 307.342541 142.416 
L 305.941236 120.384 
L 304.53993 125.28 
L 303.138624 132.624 
L 301.737318 149.76 
L 300.336012 159.552 
L 298.934706 169.344 
L 297.5334 176.688 
L 294.730789 196.272 
L 293.329483 169.344 
L 291.928177 186.48 
L 290.526871 198.72 
L 289.125565 169.344 
L 287.724259 147.312 
L 286.322953 135.072 
L 284.921647 132.624 
L 283.520342 154.656 
L 282.119036 159.552 
L 280.71773 159.552 
L 279.316424 176.688 
L 277.915118 181.584 
L 276.513812 198.72 
L 275.112506 191.376 
L 273.7112 169.344 
L 272.309895 186.48 
L 270.908589 186.48 
L 269.507283 147.312 
L 268.105977 149.76 
L 266.704671 157.104 
L 265.303365 169.344 
L 263.902059 152.208 
L 262.500753 152.208 
L 261.099448 157.104 
L 259.698142 174.24 
L 258.296836 157.104 
L 256.89553 154.656 
L 255.494224 149.76 
L 254.092918 149.76 
L 252.691612 147.312 
L 251.290306 154.656 
L 249.889001 164.448 
L 248.487695 176.688 
L 247.086389 193.824 
L 245.685083 198.72 
L 244.283777 203.616 
L 242.882471 223.2 
L 241.481165 218.304 
L 240.079859 193.824 
L 238.678553 196.272 
L 237.277248 174.24 
L 235.875942 191.376 
L 234.474636 208.512 
L 233.07333 213.408 
L 231.672024 169.344 
L 230.270718 169.344 
L 228.869412 179.136 
L 227.468106 179.136 
L 226.066801 176.688 
L 224.665495 191.376 
L 223.264189 196.272 
L 221.862883 203.616 
L 220.461577 174.24 
L 219.060271 169.344 
L 217.658965 179.136 
L 216.257659 176.688 
L 214.856354 196.272 
L 213.455048 208.512 
L 212.053742 201.168 
L 210.652436 174.24 
L 209.25113 191.376 
L 207.849824 191.376 
L 206.448518 191.376 
L 205.047212 176.688 
L 203.645907 186.48 
L 202.244601 198.72 
L 200.843295 215.856 
L 199.441989 225.648 
L 198.040683 230.544 
L 196.639377 225.648 
L 195.238071 198.72 
L 193.836765 203.616 
L 192.43546 186.48 
L 191.034154 186.48 
L 189.632848 191.376 
L 188.231542 193.824 
L 186.830236 196.272 
L 185.42893 203.616 
L 184.027624 174.24 
L 182.626318 186.48 
L 178.422401 169.344 
L 177.021095 179.136 
L 175.619789 181.584 
L 174.218483 198.72 
L 172.817177 196.272 
L 171.415871 191.376 
L 170.014566 186.48 
L 168.61326 198.72 
L 167.211954 213.408 
L 165.810648 235.44 
L 164.409342 235.44 
L 163.008036 237.888 
L 161.60673 235.44 
L 160.205424 237.888 
L 158.804119 235.44 
L 157.402813 225.648 
L 156.001507 208.512 
L 154.600201 193.824 
L 153.198895 196.272 
L 151.797589 196.272 
L 150.396283 215.856 
L 148.994977 203.616 
L 147.593672 208.512 
L 146.192366 208.512 
L 144.79106 198.72 
L 143.389754 218.304 
L 141.988448 203.616 
L 140.587142 201.168 
L 139.185836 201.168 
L 137.78453 196.272 
L 136.383225 193.824 
L 134.981919 198.72 
L 133.580613 198.72 
L 132.179307 213.408 
L 130.778001 215.856 
L 129.376695 213.408 
L 127.975389 215.856 
L 126.574083 230.544 
L 125.172777 223.2 
L 123.771472 230.544 
L 122.370166 230.544 
L 120.96886 220.752 
L 119.567554 208.512 
L 118.166248 213.408 
L 116.764942 208.512 
L 115.363636 215.856 
z
" style="fill:#0000ff;fill-opacity:0.1;"/>
   </g>
   <g id="PolyCollection_2">
    <path clip-path="url(#p3c4c3c74cc)" d="M 115.363636 257.472 
L 115.363636 279.504 
L 116.764942 284.4 
L 118.166248 286.848 
L 119.567554 286.848 
L 120.96886 269.712 
L 122.370166 269.712 
L 123.771472 274.608 
L 125.172777 274.608 
L 126.574083 279.504 
L 127.975389 296.64 
L 129.376695 296.64 
L 130.778001 286.848 
L 132.179307 279.504 
L 133.580613 267.264 
L 134.981919 269.712 
L 136.383225 257.472 
L 137.78453 262.368 
L 139.185836 274.608 
L 140.587142 279.504 
L 141.988448 269.712 
L 143.389754 257.472 
L 144.79106 252.576 
L 146.192366 262.368 
L 147.593672 274.608 
L 148.994977 279.504 
L 150.396283 284.4 
L 151.797589 262.368 
L 153.198895 279.504 
L 154.600201 289.296 
L 156.001507 296.64 
L 157.402813 301.536 
L 158.804119 301.536 
L 160.205424 301.536 
L 161.60673 296.64 
L 163.008036 308.88 
L 164.409342 313.776 
L 165.810648 318.672 
L 167.211954 313.776 
L 168.61326 318.672 
L 170.014566 308.88 
L 171.415871 318.672 
L 172.817177 323.568 
L 174.218483 326.016 
L 175.619789 296.64 
L 177.021095 289.296 
L 178.422401 301.536 
L 179.823707 296.64 
L 181.225013 291.744 
L 182.626318 301.536 
L 184.027624 301.536 
L 185.42893 301.536 
L 186.830236 301.536 
L 188.231542 301.536 
L 189.632848 303.984 
L 191.034154 313.776 
L 192.43546 296.64 
L 193.836765 284.4 
L 195.238071 289.296 
L 196.639377 289.296 
L 198.040683 301.536 
L 199.441989 306.432 
L 200.843295 313.776 
L 202.244601 308.88 
L 203.645907 318.672 
L 205.047212 323.568 
L 206.448518 291.744 
L 207.849824 269.712 
L 209.25113 281.952 
L 210.652436 284.4 
L 212.053742 274.608 
L 213.455048 279.504 
L 214.856354 274.608 
L 216.257659 284.4 
L 217.658965 284.4 
L 219.060271 286.848 
L 220.461577 284.4 
L 221.862883 286.848 
L 223.264189 291.744 
L 224.665495 301.536 
L 226.066801 296.64 
L 227.468106 286.848 
L 228.869412 296.64 
L 230.270718 279.504 
L 231.672024 279.504 
L 233.07333 274.608 
L 234.474636 279.504 
L 235.875942 296.64 
L 237.277248 289.296 
L 238.678553 284.4 
L 240.079859 284.4 
L 241.481165 284.4 
L 242.882471 289.296 
L 244.283777 291.744 
L 245.685083 296.64 
L 247.086389 274.608 
L 248.487695 274.608 
L 249.889001 274.608 
L 251.290306 279.504 
L 252.691612 281.952 
L 254.092918 279.504 
L 255.494224 289.296 
L 256.89553 296.64 
L 258.296836 284.4 
L 259.698142 274.608 
L 261.099448 267.264 
L 262.500753 269.712 
L 263.902059 267.264 
L 265.303365 274.608 
L 266.704671 257.472 
L 268.105977 262.368 
L 269.507283 279.504 
L 270.908589 284.4 
L 272.309895 269.712 
L 273.7112 274.608 
L 275.112506 279.504 
L 276.513812 267.264 
L 277.915118 267.264 
L 279.316424 267.264 
L 280.71773 267.264 
L 282.119036 274.608 
L 283.520342 269.712 
L 284.921647 235.44 
L 286.322953 252.576 
L 287.724259 269.712 
L 289.125565 262.368 
L 290.526871 262.368 
L 291.928177 262.368 
L 293.329483 262.368 
L 294.730789 264.816 
L 296.132094 252.576 
L 297.5334 257.472 
L 298.934706 259.92 
L 300.336012 247.68 
L 301.737318 252.576 
L 303.138624 252.576 
L 304.53993 257.472 
L 305.941236 247.68 
L 307.342541 252.576 
L 308.743847 257.472 
L 310.145153 259.92 
L 311.546459 262.368 
L 312.947765 269.712 
L 314.349071 262.368 
L 315.750377 257.472 
L 317.151683 262.368 
L 318.552988 259.92 
L 319.954294 247.68 
L 321.3556 252.576 
L 322.756906 252.576 
L 324.158212 247.68 
L 325.559518 257.472 
L 326.960824 259.92 
L 328.36213 257.472 
L 329.763435 262.368 
L 331.164741 259.92 
L 332.566047 257.472 
L 333.967353 262.368 
L 335.368659 247.68 
L 336.769965 252.576 
L 338.171271 252.576 
L 339.572577 252.576 
L 340.973882 259.92 
L 342.375188 242.784 
L 343.776494 252.576 
L 345.1778 252.576 
L 346.579106 252.576 
L 347.980412 259.92 
L 349.381718 252.576 
L 350.783024 257.472 
L 352.184329 262.368 
L 353.585635 252.576 
L 354.986941 242.784 
L 356.388247 240.336 
L 357.789553 242.784 
L 359.190859 247.68 
L 360.592165 252.576 
L 361.993471 252.576 
L 363.394776 247.68 
L 364.796082 237.888 
L 366.197388 242.784 
L 367.598694 240.336 
L 369 247.68 
L 370.401306 235.44 
L 371.802612 240.336 
L 373.203918 242.784 
L 374.605224 247.68 
L 376.006529 235.44 
L 377.407835 235.44 
L 378.809141 240.336 
L 380.210447 240.336 
L 381.611753 240.336 
L 383.013059 237.888 
L 384.414365 235.44 
L 385.815671 235.44 
L 387.216976 235.44 
L 388.618282 235.44 
L 390.019588 242.784 
L 391.420894 245.232 
L 392.8222 245.232 
L 394.223506 237.888 
L 395.624812 242.784 
L 397.026118 242.784 
L 398.427423 235.44 
L 399.828729 235.44 
L 401.230035 237.888 
L 402.631341 240.336 
L 404.032647 240.336 
L 405.433953 235.44 
L 406.835259 240.336 
L 408.236565 245.232 
L 409.63787 237.888 
L 411.039176 247.68 
L 412.440482 245.232 
L 413.841788 242.784 
L 415.243094 242.784 
L 416.6444 230.544 
L 418.045706 240.336 
L 419.447012 235.44 
L 420.848317 247.68 
L 422.249623 235.44 
L 423.650929 230.544 
L 425.052235 230.544 
L 426.453541 225.648 
L 427.854847 230.544 
L 429.256153 235.44 
L 430.657459 230.544 
L 432.058764 235.44 
L 433.46007 242.784 
L 434.861376 235.44 
L 436.262682 235.44 
L 437.663988 242.784 
L 439.065294 252.576 
L 440.4666 247.68 
L 441.867906 235.44 
L 443.269211 235.44 
L 444.670517 235.44 
L 446.071823 240.336 
L 447.473129 240.336 
L 448.874435 245.232 
L 450.275741 247.68 
L 451.677047 245.232 
L 453.078353 252.576 
L 454.479658 247.68 
L 455.880964 252.576 
L 457.28227 252.576 
L 458.683576 242.784 
L 460.084882 242.784 
L 461.486188 237.888 
L 462.887494 240.336 
L 464.2888 247.68 
L 465.690105 257.472 
L 467.091411 257.472 
L 468.492717 247.68 
L 469.894023 240.336 
L 471.295329 240.336 
L 472.696635 235.44 
L 474.097941 240.336 
L 475.499247 240.336 
L 476.900552 240.336 
L 478.301858 252.576 
L 479.703164 235.44 
L 481.10447 240.336 
L 482.505776 245.232 
L 483.907082 242.784 
L 485.308388 257.472 
L 486.709694 257.472 
L 488.110999 252.576 
L 489.512305 240.336 
L 490.913611 242.784 
L 492.314917 242.784 
L 493.716223 247.68 
L 495.117529 259.92 
L 496.518835 262.368 
L 497.920141 279.504 
L 499.321447 274.608 
L 500.722752 242.784 
L 502.124058 247.68 
L 503.525364 252.576 
L 504.92667 267.264 
L 506.327976 279.504 
L 507.729282 284.4 
L 509.130588 264.816 
L 510.531894 252.576 
L 511.933199 252.576 
L 513.334505 257.472 
L 514.735811 274.608 
L 516.137117 257.472 
L 517.538423 252.576 
L 518.939729 257.472 
L 520.341035 279.504 
L 521.742341 262.368 
L 523.143646 259.92 
L 524.544952 267.264 
L 525.946258 257.472 
L 527.347564 274.608 
L 528.74887 274.608 
L 530.150176 281.952 
L 531.551482 279.504 
L 532.952788 279.504 
L 534.354093 279.504 
L 535.755399 279.504 
L 537.156705 267.264 
L 538.558011 274.608 
L 539.959317 274.608 
L 541.360623 269.712 
L 542.761929 274.608 
L 544.163235 281.952 
L 545.56454 279.504 
L 546.965846 284.4 
L 548.367152 284.4 
L 549.768458 259.92 
L 551.169764 279.504 
L 552.57107 281.952 
L 553.972376 284.4 
L 555.373682 289.296 
L 556.774987 296.64 
L 558.176293 301.536 
L 559.577599 301.536 
L 560.978905 301.536 
L 562.380211 286.848 
L 563.781517 279.504 
L 565.182823 264.816 
L 566.584129 274.608 
L 567.985434 286.848 
L 569.38674 274.608 
L 570.788046 279.504 
L 572.189352 279.504 
L 573.590658 274.608 
L 574.991964 291.744 
L 576.39327 301.536 
L 577.794576 301.536 
L 579.195881 308.88 
L 580.597187 301.536 
L 581.998493 291.744 
L 583.399799 296.64 
L 584.801105 281.952 
L 586.202411 301.536 
L 587.603717 301.536 
L 589.005023 291.744 
L 590.406328 279.504 
L 591.807634 259.92 
L 593.20894 262.368 
L 594.610246 269.712 
L 596.011552 281.952 
L 597.412858 274.608 
L 598.814164 279.504 
L 600.21547 274.608 
L 601.616775 257.472 
L 603.018081 264.816 
L 604.419387 279.504 
L 605.820693 286.848 
L 607.221999 269.712 
L 608.623305 267.264 
L 610.024611 269.712 
L 611.425917 279.504 
L 612.827223 274.608 
L 612.827223 259.92 
L 612.827223 259.92 
L 611.425917 267.264 
L 610.024611 257.472 
L 608.623305 257.472 
L 607.221999 259.92 
L 605.820693 264.816 
L 604.419387 262.368 
L 603.018081 247.68 
L 601.616775 252.576 
L 600.21547 257.472 
L 598.814164 267.264 
L 597.412858 257.472 
L 596.011552 259.92 
L 594.610246 259.92 
L 593.20894 242.784 
L 591.807634 247.68 
L 590.406328 259.92 
L 589.005023 274.608 
L 587.603717 279.504 
L 586.202411 274.608 
L 584.801105 259.92 
L 583.399799 281.952 
L 581.998493 279.504 
L 580.597187 281.952 
L 579.195881 291.744 
L 577.794576 281.952 
L 576.39327 274.608 
L 574.991964 274.608 
L 573.590658 264.816 
L 572.189352 267.264 
L 570.788046 264.816 
L 569.38674 252.576 
L 567.985434 262.368 
L 566.584129 257.472 
L 565.182823 242.784 
L 563.781517 259.92 
L 562.380211 264.816 
L 560.978905 264.816 
L 559.577599 264.816 
L 558.176293 264.816 
L 556.774987 264.816 
L 555.373682 262.368 
L 553.972376 262.368 
L 552.57107 262.368 
L 551.169764 252.576 
L 549.768458 247.68 
L 548.367152 257.472 
L 546.965846 259.92 
L 545.56454 259.92 
L 544.163235 257.472 
L 542.761929 257.472 
L 541.360623 257.472 
L 539.959317 264.816 
L 538.558011 252.576 
L 537.156705 247.68 
L 535.755399 259.92 
L 534.354093 247.68 
L 532.952788 257.472 
L 531.551482 247.68 
L 530.150176 257.472 
L 528.74887 252.576 
L 527.347564 247.68 
L 525.946258 242.784 
L 524.544952 247.68 
L 523.143646 245.232 
L 521.742341 242.784 
L 520.341035 235.44 
L 518.939729 242.784 
L 517.538423 237.888 
L 516.137117 245.232 
L 514.735811 240.336 
L 513.334505 240.336 
L 511.933199 245.232 
L 510.531894 237.888 
L 509.130588 235.44 
L 507.729282 252.576 
L 506.327976 257.472 
L 504.92667 252.576 
L 503.525364 235.44 
L 502.124058 235.44 
L 500.722752 230.544 
L 499.321447 235.44 
L 497.920141 237.888 
L 496.518835 237.888 
L 495.117529 230.544 
L 493.716223 230.544 
L 492.314917 220.752 
L 490.913611 218.304 
L 489.512305 230.544 
L 488.110999 218.304 
L 486.709694 218.304 
L 485.308388 230.544 
L 483.907082 213.408 
L 482.505776 220.752 
L 481.10447 225.648 
L 479.703164 223.2 
L 478.301858 230.544 
L 476.900552 218.304 
L 475.499247 220.752 
L 474.097941 230.544 
L 472.696635 220.752 
L 471.295329 225.648 
L 469.894023 230.544 
L 468.492717 215.856 
L 467.091411 230.544 
L 465.690105 230.544 
L 464.2888 230.544 
L 462.887494 230.544 
L 461.486188 223.2 
L 460.084882 230.544 
L 458.683576 230.544 
L 457.28227 218.304 
L 455.880964 230.544 
L 454.479658 235.44 
L 453.078353 220.752 
L 451.677047 225.648 
L 450.275741 220.752 
L 448.874435 218.304 
L 447.473129 230.544 
L 446.071823 225.648 
L 444.670517 230.544 
L 443.269211 213.408 
L 441.867906 213.408 
L 440.4666 198.72 
L 439.065294 208.512 
L 437.663988 215.856 
L 436.262682 215.856 
L 434.861376 218.304 
L 433.46007 215.856 
L 432.058764 215.856 
L 430.657459 213.408 
L 429.256153 223.2 
L 427.854847 213.408 
L 426.453541 213.408 
L 425.052235 218.304 
L 423.650929 220.752 
L 422.249623 213.408 
L 420.848317 215.856 
L 419.447012 215.856 
L 418.045706 208.512 
L 416.6444 213.408 
L 415.243094 213.408 
L 413.841788 208.512 
L 412.440482 201.168 
L 411.039176 208.512 
L 409.63787 220.752 
L 408.236565 220.752 
L 406.835259 225.648 
L 405.433953 220.752 
L 404.032647 230.544 
L 402.631341 230.544 
L 401.230035 225.648 
L 399.828729 218.304 
L 398.427423 215.856 
L 397.026118 201.168 
L 395.624812 230.544 
L 394.223506 223.2 
L 392.8222 215.856 
L 391.420894 225.648 
L 390.019588 220.752 
L 388.618282 213.408 
L 387.216976 220.752 
L 385.815671 230.544 
L 384.414365 225.648 
L 383.013059 230.544 
L 381.611753 220.752 
L 380.210447 230.544 
L 378.809141 235.44 
L 377.407835 220.752 
L 376.006529 218.304 
L 374.605224 201.168 
L 373.203918 225.648 
L 371.802612 213.408 
L 370.401306 196.272 
L 369 213.408 
L 367.598694 230.544 
L 366.197388 215.856 
L 364.796082 208.512 
L 363.394776 213.408 
L 361.993471 225.648 
L 360.592165 235.44 
L 359.190859 237.888 
L 357.789553 230.544 
L 356.388247 230.544 
L 354.986941 223.2 
L 353.585635 230.544 
L 352.184329 225.648 
L 350.783024 235.44 
L 349.381718 230.544 
L 347.980412 225.648 
L 346.579106 225.648 
L 345.1778 235.44 
L 343.776494 237.888 
L 342.375188 230.544 
L 340.973882 225.648 
L 339.572577 225.648 
L 338.171271 230.544 
L 336.769965 237.888 
L 335.368659 235.44 
L 333.967353 225.648 
L 332.566047 235.44 
L 331.164741 223.2 
L 329.763435 247.68 
L 328.36213 235.44 
L 326.960824 235.44 
L 325.559518 240.336 
L 324.158212 240.336 
L 322.756906 230.544 
L 321.3556 242.784 
L 319.954294 237.888 
L 318.552988 230.544 
L 317.151683 213.408 
L 315.750377 235.44 
L 314.349071 230.544 
L 312.947765 225.648 
L 311.546459 230.544 
L 310.145153 245.232 
L 308.743847 245.232 
L 307.342541 245.232 
L 305.941236 230.544 
L 304.53993 198.72 
L 303.138624 230.544 
L 301.737318 242.784 
L 300.336012 225.648 
L 298.934706 230.544 
L 297.5334 252.576 
L 296.132094 242.784 
L 294.730789 220.752 
L 293.329483 230.544 
L 291.928177 240.336 
L 290.526871 245.232 
L 289.125565 245.232 
L 287.724259 223.2 
L 286.322953 208.512 
L 284.921647 196.272 
L 283.520342 203.616 
L 282.119036 230.544 
L 280.71773 247.68 
L 279.316424 247.68 
L 277.915118 252.576 
L 276.513812 240.336 
L 275.112506 247.68 
L 273.7112 247.68 
L 272.309895 257.472 
L 270.908589 247.68 
L 269.507283 257.472 
L 268.105977 240.336 
L 266.704671 242.784 
L 265.303365 252.576 
L 263.902059 252.576 
L 262.500753 240.336 
L 261.099448 259.92 
L 259.698142 257.472 
L 258.296836 257.472 
L 256.89553 257.472 
L 255.494224 247.68 
L 254.092918 264.816 
L 252.691612 267.264 
L 251.290306 259.92 
L 249.889001 252.576 
L 248.487695 252.576 
L 247.086389 259.92 
L 245.685083 262.368 
L 244.283777 259.92 
L 242.882471 267.264 
L 241.481165 267.264 
L 240.079859 252.576 
L 238.678553 247.68 
L 237.277248 245.232 
L 235.875942 252.576 
L 234.474636 262.368 
L 233.07333 262.368 
L 231.672024 257.472 
L 230.270718 264.816 
L 228.869412 262.368 
L 227.468106 259.92 
L 226.066801 262.368 
L 224.665495 267.264 
L 223.264189 267.264 
L 221.862883 274.608 
L 220.461577 264.816 
L 219.060271 274.608 
L 217.658965 264.816 
L 216.257659 262.368 
L 214.856354 259.92 
L 213.455048 262.368 
L 212.053742 259.92 
L 210.652436 257.472 
L 209.25113 269.712 
L 207.849824 259.92 
L 206.448518 259.92 
L 205.047212 279.504 
L 203.645907 281.952 
L 202.244601 301.536 
L 200.843295 296.64 
L 199.441989 284.4 
L 198.040683 267.264 
L 196.639377 257.472 
L 195.238071 264.816 
L 193.836765 257.472 
L 192.43546 259.92 
L 191.034154 274.608 
L 189.632848 279.504 
L 188.231542 289.296 
L 186.830236 279.504 
L 185.42893 284.4 
L 184.027624 279.504 
L 182.626318 274.608 
L 181.225013 279.504 
L 179.823707 279.504 
L 178.422401 262.368 
L 177.021095 274.608 
L 175.619789 281.952 
L 174.218483 289.296 
L 172.817177 301.536 
L 171.415871 291.744 
L 170.014566 301.536 
L 168.61326 289.296 
L 167.211954 281.952 
L 165.810648 291.744 
L 164.409342 284.4 
L 163.008036 286.848 
L 161.60673 279.504 
L 160.205424 267.264 
L 158.804119 274.608 
L 157.402813 279.504 
L 156.001507 267.264 
L 154.600201 264.816 
L 153.198895 262.368 
L 151.797589 235.44 
L 150.396283 257.472 
L 148.994977 257.472 
L 147.593672 252.576 
L 146.192366 235.44 
L 144.79106 237.888 
L 143.389754 237.888 
L 141.988448 257.472 
L 140.587142 259.92 
L 139.185836 252.576 
L 137.78453 235.44 
L 136.383225 245.232 
L 134.981919 252.576 
L 133.580613 252.576 
L 132.179307 252.576 
L 130.778001 264.816 
L 129.376695 281.952 
L 127.975389 274.608 
L 126.574083 269.712 
L 125.172777 262.368 
L 123.771472 262.368 
L 122.370166 262.368 
L 120.96886 262.368 
L 119.567554 264.816 
L 118.166248 274.608 
L 116.764942 269.712 
L 115.363636 257.472 
z
" style="fill:#800080;fill-opacity:0.1;"/>
   </g>
   <g id="matplotlib.axis_1">
    <g id="xtick_1">
     <g id="line2d_1">
      <defs>
       <path d="M 0 0 
L 0 3.5 
" id="m685d120e7b" style="stroke:#000000;stroke-width:0.8;"/>
      </defs>
      <g>
       <use style="stroke:#000000;stroke-width:0.8;" x="115.363636" xlink:href="#m685d120e7b" y="345.6"/>
      </g>
     </g>
     <g id="text_1">
      <!-- 2014-01 -->
      <defs>
       <path d="M 19.1875 8.296875 
L 53.609375 8.296875 
L 53.609375 0 
L 7.328125 0 
L 7.328125 8.296875 
Q 12.9375 14.109375 22.625 23.890625 
Q 32.328125 33.6875 34.8125 36.53125 
Q 39.546875 41.84375 41.421875 45.53125 
Q 43.3125 49.21875 43.3125 52.78125 
Q 43.3125 58.59375 39.234375 62.25 
Q 35.15625 65.921875 28.609375 65.921875 
Q 23.96875 65.921875 18.8125 64.3125 
Q 13.671875 62.703125 7.8125 59.421875 
L 7.8125 69.390625 
Q 13.765625 71.78125 18.9375 73 
Q 24.125 74.21875 28.421875 74.21875 
Q 39.75 74.21875 46.484375 68.546875 
Q 53.21875 62.890625 53.21875 53.421875 
Q 53.21875 48.921875 51.53125 44.890625 
Q 49.859375 40.875 45.40625 35.40625 
Q 44.1875 33.984375 37.640625 27.21875 
Q 31.109375 20.453125 19.1875 8.296875 
z
" id="DejaVuSans-32"/>
       <path d="M 31.78125 66.40625 
Q 24.171875 66.40625 20.328125 58.90625 
Q 16.5 51.421875 16.5 36.375 
Q 16.5 21.390625 20.328125 13.890625 
Q 24.171875 6.390625 31.78125 6.390625 
Q 39.453125 6.390625 43.28125 13.890625 
Q 47.125 21.390625 47.125 36.375 
Q 47.125 51.421875 43.28125 58.90625 
Q 39.453125 66.40625 31.78125 66.40625 
z
M 31.78125 74.21875 
Q 44.046875 74.21875 50.515625 64.515625 
Q 56.984375 54.828125 56.984375 36.375 
Q 56.984375 17.96875 50.515625 8.265625 
Q 44.046875 -1.421875 31.78125 -1.421875 
Q 19.53125 -1.421875 13.0625 8.265625 
Q 6.59375 17.96875 6.59375 36.375 
Q 6.59375 54.828125 13.0625 64.515625 
Q 19.53125 74.21875 31.78125 74.21875 
z
" id="DejaVuSans-30"/>
       <path d="M 12.40625 8.296875 
L 28.515625 8.296875 
L 28.515625 63.921875 
L 10.984375 60.40625 
L 10.984375 69.390625 
L 28.421875 72.90625 
L 38.28125 72.90625 
L 38.28125 8.296875 
L 54.390625 8.296875 
L 54.390625 0 
L 12.40625 0 
z
" id="DejaVuSans-31"/>
       <path d="M 37.796875 64.3125 
L 12.890625 25.390625 
L 37.796875 25.390625 
z
M 35.203125 72.90625 
L 47.609375 72.90625 
L 47.609375 25.390625 
L 58.015625 25.390625 
L 58.015625 17.1875 
L 47.609375 17.1875 
L 47.609375 0 
L 37.796875 0 
L 37.796875 17.1875 
L 4.890625 17.1875 
L 4.890625 26.703125 
z
" id="DejaVuSans-34"/>
       <path d="M 4.890625 31.390625 
L 31.203125 31.390625 
L 31.203125 23.390625 
L 4.890625 23.390625 
z
" id="DejaVuSans-2d"/>
      </defs>
      <g transform="translate(55.803923 396.554954)rotate(-30)scale(0.16 -0.16)">
       <use xlink:href="#DejaVuSans-32"/>
       <use x="63.623047" xlink:href="#DejaVuSans-30"/>
       <use x="127.246094" xlink:href="#DejaVuSans-31"/>
       <use x="190.869141" xlink:href="#DejaVuSans-34"/>
       <use x="254.492188" xlink:href="#DejaVuSans-2d"/>
       <use x="290.576172" xlink:href="#DejaVuSans-30"/>
       <use x="354.199219" xlink:href="#DejaVuSans-31"/>
      </g>
     </g>
    </g>
    <g id="xtick_2">
     <g id="line2d_2">
      <g>
       <use style="stroke:#000000;stroke-width:0.8;" x="198.040683" xlink:href="#m685d120e7b" y="345.6"/>
      </g>
     </g>
     <g id="text_2">
      <!-- 2014-03 -->
      <defs>
       <path d="M 40.578125 39.3125 
Q 47.65625 37.796875 51.625 33 
Q 55.609375 28.21875 55.609375 21.1875 
Q 55.609375 10.40625 48.1875 4.484375 
Q 40.765625 -1.421875 27.09375 -1.421875 
Q 22.515625 -1.421875 17.65625 -0.515625 
Q 12.796875 0.390625 7.625 2.203125 
L 7.625 11.71875 
Q 11.71875 9.328125 16.59375 8.109375 
Q 21.484375 6.890625 26.8125 6.890625 
Q 36.078125 6.890625 40.9375 10.546875 
Q 45.796875 14.203125 45.796875 21.1875 
Q 45.796875 27.640625 41.28125 31.265625 
Q 36.765625 34.90625 28.71875 34.90625 
L 20.21875 34.90625 
L 20.21875 43.015625 
L 29.109375 43.015625 
Q 36.375 43.015625 40.234375 45.921875 
Q 44.09375 48.828125 44.09375 54.296875 
Q 44.09375 59.90625 40.109375 62.90625 
Q 36.140625 65.921875 28.71875 65.921875 
Q 24.65625 65.921875 20.015625 65.03125 
Q 15.375 64.15625 9.8125 62.3125 
L 9.8125 71.09375 
Q 15.4375 72.65625 20.34375 73.4375 
Q 25.25 74.21875 29.59375 74.21875 
Q 40.828125 74.21875 47.359375 69.109375 
Q 53.90625 64.015625 53.90625 55.328125 
Q 53.90625 49.265625 50.4375 45.09375 
Q 46.96875 40.921875 40.578125 39.3125 
z
" id="DejaVuSans-33"/>
      </defs>
      <g transform="translate(138.48097 396.554954)rotate(-30)scale(0.16 -0.16)">
       <use xlink:href="#DejaVuSans-32"/>
       <use x="63.623047" xlink:href="#DejaVuSans-30"/>
       <use x="127.246094" xlink:href="#DejaVuSans-31"/>
       <use x="190.869141" xlink:href="#DejaVuSans-34"/>
       <use x="254.492188" xlink:href="#DejaVuSans-2d"/>
       <use x="290.576172" xlink:href="#DejaVuSans-30"/>
       <use x="354.199219" xlink:href="#DejaVuSans-33"/>
      </g>
     </g>
    </g>
    <g id="xtick_3">
     <g id="line2d_3">
      <g>
       <use style="stroke:#000000;stroke-width:0.8;" x="283.520342" xlink:href="#m685d120e7b" y="345.6"/>
      </g>
     </g>
     <g id="text_3">
      <!-- 2014-05 -->
      <defs>
       <path d="M 10.796875 72.90625 
L 49.515625 72.90625 
L 49.515625 64.59375 
L 19.828125 64.59375 
L 19.828125 46.734375 
Q 21.96875 47.46875 24.109375 47.828125 
Q 26.265625 48.1875 28.421875 48.1875 
Q 40.625 48.1875 47.75 41.5 
Q 54.890625 34.8125 54.890625 23.390625 
Q 54.890625 11.625 47.5625 5.09375 
Q 40.234375 -1.421875 26.90625 -1.421875 
Q 22.3125 -1.421875 17.546875 -0.640625 
Q 12.796875 0.140625 7.71875 1.703125 
L 7.71875 11.625 
Q 12.109375 9.234375 16.796875 8.0625 
Q 21.484375 6.890625 26.703125 6.890625 
Q 35.15625 6.890625 40.078125 11.328125 
Q 45.015625 15.765625 45.015625 23.390625 
Q 45.015625 31 40.078125 35.4375 
Q 35.15625 39.890625 26.703125 39.890625 
Q 22.75 39.890625 18.8125 39.015625 
Q 14.890625 38.140625 10.796875 36.28125 
z
" id="DejaVuSans-35"/>
      </defs>
      <g transform="translate(223.960628 396.554954)rotate(-30)scale(0.16 -0.16)">
       <use xlink:href="#DejaVuSans-32"/>
       <use x="63.623047" xlink:href="#DejaVuSans-30"/>
       <use x="127.246094" xlink:href="#DejaVuSans-31"/>
       <use x="190.869141" xlink:href="#DejaVuSans-34"/>
       <use x="254.492188" xlink:href="#DejaVuSans-2d"/>
       <use x="290.576172" xlink:href="#DejaVuSans-30"/>
       <use x="354.199219" xlink:href="#DejaVuSans-35"/>
      </g>
     </g>
    </g>
    <g id="xtick_4">
     <g id="line2d_4">
      <g>
       <use style="stroke:#000000;stroke-width:0.8;" x="369" xlink:href="#m685d120e7b" y="345.6"/>
      </g>
     </g>
     <g id="text_4">
      <!-- 2014-07 -->
      <defs>
       <path d="M 8.203125 72.90625 
L 55.078125 72.90625 
L 55.078125 68.703125 
L 28.609375 0 
L 18.3125 0 
L 43.21875 64.59375 
L 8.203125 64.59375 
z
" id="DejaVuSans-37"/>
      </defs>
      <g transform="translate(309.440287 396.554954)rotate(-30)scale(0.16 -0.16)">
       <use xlink:href="#DejaVuSans-32"/>
       <use x="63.623047" xlink:href="#DejaVuSans-30"/>
       <use x="127.246094" xlink:href="#DejaVuSans-31"/>
       <use x="190.869141" xlink:href="#DejaVuSans-34"/>
       <use x="254.492188" xlink:href="#DejaVuSans-2d"/>
       <use x="290.576172" xlink:href="#DejaVuSans-30"/>
       <use x="354.199219" xlink:href="#DejaVuSans-37"/>
      </g>
     </g>
    </g>
    <g id="xtick_5">
     <g id="line2d_5">
      <g>
       <use style="stroke:#000000;stroke-width:0.8;" x="455.880964" xlink:href="#m685d120e7b" y="345.6"/>
      </g>
     </g>
     <g id="text_5">
      <!-- 2014-09 -->
      <defs>
       <path d="M 10.984375 1.515625 
L 10.984375 10.5 
Q 14.703125 8.734375 18.5 7.8125 
Q 22.3125 6.890625 25.984375 6.890625 
Q 35.75 6.890625 40.890625 13.453125 
Q 46.046875 20.015625 46.78125 33.40625 
Q 43.953125 29.203125 39.59375 26.953125 
Q 35.25 24.703125 29.984375 24.703125 
Q 19.046875 24.703125 12.671875 31.3125 
Q 6.296875 37.9375 6.296875 49.421875 
Q 6.296875 60.640625 12.9375 67.421875 
Q 19.578125 74.21875 30.609375 74.21875 
Q 43.265625 74.21875 49.921875 64.515625 
Q 56.59375 54.828125 56.59375 36.375 
Q 56.59375 19.140625 48.40625 8.859375 
Q 40.234375 -1.421875 26.421875 -1.421875 
Q 22.703125 -1.421875 18.890625 -0.6875 
Q 15.09375 0.046875 10.984375 1.515625 
z
M 30.609375 32.421875 
Q 37.25 32.421875 41.125 36.953125 
Q 45.015625 41.5 45.015625 49.421875 
Q 45.015625 57.28125 41.125 61.84375 
Q 37.25 66.40625 30.609375 66.40625 
Q 23.96875 66.40625 20.09375 61.84375 
Q 16.21875 57.28125 16.21875 49.421875 
Q 16.21875 41.5 20.09375 36.953125 
Q 23.96875 32.421875 30.609375 32.421875 
z
" id="DejaVuSans-39"/>
      </defs>
      <g transform="translate(396.321251 396.554954)rotate(-30)scale(0.16 -0.16)">
       <use xlink:href="#DejaVuSans-32"/>
       <use x="63.623047" xlink:href="#DejaVuSans-30"/>
       <use x="127.246094" xlink:href="#DejaVuSans-31"/>
       <use x="190.869141" xlink:href="#DejaVuSans-34"/>
       <use x="254.492188" xlink:href="#DejaVuSans-2d"/>
       <use x="290.576172" xlink:href="#DejaVuSans-30"/>
       <use x="354.199219" xlink:href="#DejaVuSans-39"/>
      </g>
     </g>
    </g>
    <g id="xtick_6">
     <g id="line2d_6">
      <g>
       <use style="stroke:#000000;stroke-width:0.8;" x="541.360623" xlink:href="#m685d120e7b" y="345.6"/>
      </g>
     </g>
     <g id="text_6">
      <!-- 2014-11 -->
      <g transform="translate(481.800909 396.554954)rotate(-30)scale(0.16 -0.16)">
       <use xlink:href="#DejaVuSans-32"/>
       <use x="63.623047" xlink:href="#DejaVuSans-30"/>
       <use x="127.246094" xlink:href="#DejaVuSans-31"/>
       <use x="190.869141" xlink:href="#DejaVuSans-34"/>
       <use x="254.492188" xlink:href="#DejaVuSans-2d"/>
       <use x="290.576172" xlink:href="#DejaVuSans-31"/>
       <use x="354.199219" xlink:href="#DejaVuSans-31"/>
      </g>
     </g>
    </g>
    <g id="xtick_7">
     <g id="line2d_7">
      <g>
       <use style="stroke:#000000;stroke-width:0.8;" x="626.840281" xlink:href="#m685d120e7b" y="345.6"/>
      </g>
     </g>
     <g id="text_7">
      <!-- 2015-01 -->
      <g transform="translate(567.280568 396.554954)rotate(-30)scale(0.16 -0.16)">
       <use xlink:href="#DejaVuSans-32"/>
       <use x="63.623047" xlink:href="#DejaVuSans-30"/>
       <use x="127.246094" xlink:href="#DejaVuSans-31"/>
       <use x="190.869141" xlink:href="#DejaVuSans-35"/>
       <use x="254.492188" xlink:href="#DejaVuSans-2d"/>
       <use x="290.576172" xlink:href="#DejaVuSans-30"/>
       <use x="354.199219" xlink:href="#DejaVuSans-31"/>
      </g>
     </g>
    </g>
   </g>
   <g id="matplotlib.axis_2">
    <g id="ytick_1">
     <g id="line2d_8">
      <defs>
       <path d="M 0 0 
L -3.5 0 
" id="mc7a0bcc2e0" style="stroke:#000000;stroke-width:0.8;"/>
      </defs>
      <g>
       <use style="stroke:#000000;stroke-width:0.8;" x="90" xlink:href="#mc7a0bcc2e0" y="321.12"/>
      </g>
     </g>
     <g id="text_8">
      <!-- 20 -->
      <g transform="translate(62.64 327.19875)scale(0.16 -0.16)">
       <use xlink:href="#DejaVuSans-32"/>
       <use x="63.623047" xlink:href="#DejaVuSans-30"/>
      </g>
     </g>
    </g>
    <g id="ytick_2">
     <g id="line2d_9">
      <g>
       <use style="stroke:#000000;stroke-width:0.8;" x="90" xlink:href="#mc7a0bcc2e0" y="272.16"/>
      </g>
     </g>
     <g id="text_9">
      <!-- 40 -->
      <g transform="translate(62.64 278.23875)scale(0.16 -0.16)">
       <use xlink:href="#DejaVuSans-34"/>
       <use x="63.623047" xlink:href="#DejaVuSans-30"/>
      </g>
     </g>
    </g>
    <g id="ytick_3">
     <g id="line2d_10">
      <g>
       <use style="stroke:#000000;stroke-width:0.8;" x="90" xlink:href="#mc7a0bcc2e0" y="223.2"/>
      </g>
     </g>
     <g id="text_10">
      <!-- 60 -->
      <defs>
       <path d="M 33.015625 40.375 
Q 26.375 40.375 22.484375 35.828125 
Q 18.609375 31.296875 18.609375 23.390625 
Q 18.609375 15.53125 22.484375 10.953125 
Q 26.375 6.390625 33.015625 6.390625 
Q 39.65625 6.390625 43.53125 10.953125 
Q 47.40625 15.53125 47.40625 23.390625 
Q 47.40625 31.296875 43.53125 35.828125 
Q 39.65625 40.375 33.015625 40.375 
z
M 52.59375 71.296875 
L 52.59375 62.3125 
Q 48.875 64.0625 45.09375 64.984375 
Q 41.3125 65.921875 37.59375 65.921875 
Q 27.828125 65.921875 22.671875 59.328125 
Q 17.53125 52.734375 16.796875 39.40625 
Q 19.671875 43.65625 24.015625 45.921875 
Q 28.375 48.1875 33.59375 48.1875 
Q 44.578125 48.1875 50.953125 41.515625 
Q 57.328125 34.859375 57.328125 23.390625 
Q 57.328125 12.15625 50.6875 5.359375 
Q 44.046875 -1.421875 33.015625 -1.421875 
Q 20.359375 -1.421875 13.671875 8.265625 
Q 6.984375 17.96875 6.984375 36.375 
Q 6.984375 53.65625 15.1875 63.9375 
Q 23.390625 74.21875 37.203125 74.21875 
Q 40.921875 74.21875 44.703125 73.484375 
Q 48.484375 72.75 52.59375 71.296875 
z
" id="DejaVuSans-36"/>
      </defs>
      <g transform="translate(62.64 229.27875)scale(0.16 -0.16)">
       <use xlink:href="#DejaVuSans-36"/>
       <use x="63.623047" xlink:href="#DejaVuSans-30"/>
      </g>
     </g>
    </g>
    <g id="ytick_4">
     <g id="line2d_11">
      <g>
       <use style="stroke:#000000;stroke-width:0.8;" x="90" xlink:href="#mc7a0bcc2e0" y="174.24"/>
      </g>
     </g>
     <g id="text_11">
      <!-- 80 -->
      <defs>
       <path d="M 31.78125 34.625 
Q 24.75 34.625 20.71875 30.859375 
Q 16.703125 27.09375 16.703125 20.515625 
Q 16.703125 13.921875 20.71875 10.15625 
Q 24.75 6.390625 31.78125 6.390625 
Q 38.8125 6.390625 42.859375 10.171875 
Q 46.921875 13.96875 46.921875 20.515625 
Q 46.921875 27.09375 42.890625 30.859375 
Q 38.875 34.625 31.78125 34.625 
z
M 21.921875 38.8125 
Q 15.578125 40.375 12.03125 44.71875 
Q 8.5 49.078125 8.5 55.328125 
Q 8.5 64.0625 14.71875 69.140625 
Q 20.953125 74.21875 31.78125 74.21875 
Q 42.671875 74.21875 48.875 69.140625 
Q 55.078125 64.0625 55.078125 55.328125 
Q 55.078125 49.078125 51.53125 44.71875 
Q 48 40.375 41.703125 38.8125 
Q 48.828125 37.15625 52.796875 32.3125 
Q 56.78125 27.484375 56.78125 20.515625 
Q 56.78125 9.90625 50.3125 4.234375 
Q 43.84375 -1.421875 31.78125 -1.421875 
Q 19.734375 -1.421875 13.25 4.234375 
Q 6.78125 9.90625 6.78125 20.515625 
Q 6.78125 27.484375 10.78125 32.3125 
Q 14.796875 37.15625 21.921875 38.8125 
z
M 18.3125 54.390625 
Q 18.3125 48.734375 21.84375 45.5625 
Q 25.390625 42.390625 31.78125 42.390625 
Q 38.140625 42.390625 41.71875 45.5625 
Q 45.3125 48.734375 45.3125 54.390625 
Q 45.3125 60.0625 41.71875 63.234375 
Q 38.140625 66.40625 31.78125 66.40625 
Q 25.390625 66.40625 21.84375 63.234375 
Q 18.3125 60.0625 18.3125 54.390625 
z
" id="DejaVuSans-38"/>
      </defs>
      <g transform="translate(62.64 180.31875)scale(0.16 -0.16)">
       <use xlink:href="#DejaVuSans-38"/>
       <use x="63.623047" xlink:href="#DejaVuSans-30"/>
      </g>
     </g>
    </g>
    <g id="ytick_5">
     <g id="line2d_12">
      <g>
       <use style="stroke:#000000;stroke-width:0.8;" x="90" xlink:href="#mc7a0bcc2e0" y="125.28"/>
      </g>
     </g>
     <g id="text_12">
      <!-- 100 -->
      <g transform="translate(52.46 131.35875)scale(0.16 -0.16)">
       <use xlink:href="#DejaVuSans-31"/>
       <use x="63.623047" xlink:href="#DejaVuSans-30"/>
       <use x="127.246094" xlink:href="#DejaVuSans-30"/>
      </g>
     </g>
    </g>
    <g id="ytick_6">
     <g id="line2d_13">
      <g>
       <use style="stroke:#000000;stroke-width:0.8;" x="90" xlink:href="#mc7a0bcc2e0" y="76.32"/>
      </g>
     </g>
     <g id="text_13">
      <!-- 120 -->
      <g transform="translate(52.46 82.39875)scale(0.16 -0.16)">
       <use xlink:href="#DejaVuSans-31"/>
       <use x="63.623047" xlink:href="#DejaVuSans-32"/>
       <use x="127.246094" xlink:href="#DejaVuSans-30"/>
      </g>
     </g>
    </g>
    <g id="text_14">
     <!-- Temperature (F) -->
     <defs>
      <path d="M -0.296875 72.90625 
L 61.375 72.90625 
L 61.375 64.59375 
L 35.5 64.59375 
L 35.5 0 
L 25.59375 0 
L 25.59375 64.59375 
L -0.296875 64.59375 
z
" id="DejaVuSans-54"/>
      <path d="M 56.203125 29.59375 
L 56.203125 25.203125 
L 14.890625 25.203125 
Q 15.484375 15.921875 20.484375 11.0625 
Q 25.484375 6.203125 34.421875 6.203125 
Q 39.59375 6.203125 44.453125 7.46875 
Q 49.3125 8.734375 54.109375 11.28125 
L 54.109375 2.78125 
Q 49.265625 0.734375 44.1875 -0.34375 
Q 39.109375 -1.421875 33.890625 -1.421875 
Q 20.796875 -1.421875 13.15625 6.1875 
Q 5.515625 13.8125 5.515625 26.8125 
Q 5.515625 40.234375 12.765625 48.109375 
Q 20.015625 56 32.328125 56 
Q 43.359375 56 49.78125 48.890625 
Q 56.203125 41.796875 56.203125 29.59375 
z
M 47.21875 32.234375 
Q 47.125 39.59375 43.09375 43.984375 
Q 39.0625 48.390625 32.421875 48.390625 
Q 24.90625 48.390625 20.390625 44.140625 
Q 15.875 39.890625 15.1875 32.171875 
z
" id="DejaVuSans-65"/>
      <path d="M 52 44.1875 
Q 55.375 50.25 60.0625 53.125 
Q 64.75 56 71.09375 56 
Q 79.640625 56 84.28125 50.015625 
Q 88.921875 44.046875 88.921875 33.015625 
L 88.921875 0 
L 79.890625 0 
L 79.890625 32.71875 
Q 79.890625 40.578125 77.09375 44.375 
Q 74.3125 48.1875 68.609375 48.1875 
Q 61.625 48.1875 57.5625 43.546875 
Q 53.515625 38.921875 53.515625 30.90625 
L 53.515625 0 
L 44.484375 0 
L 44.484375 32.71875 
Q 44.484375 40.625 41.703125 44.40625 
Q 38.921875 48.1875 33.109375 48.1875 
Q 26.21875 48.1875 22.15625 43.53125 
Q 18.109375 38.875 18.109375 30.90625 
L 18.109375 0 
L 9.078125 0 
L 9.078125 54.6875 
L 18.109375 54.6875 
L 18.109375 46.1875 
Q 21.1875 51.21875 25.484375 53.609375 
Q 29.78125 56 35.6875 56 
Q 41.65625 56 45.828125 52.96875 
Q 50 49.953125 52 44.1875 
z
" id="DejaVuSans-6d"/>
      <path d="M 18.109375 8.203125 
L 18.109375 -20.796875 
L 9.078125 -20.796875 
L 9.078125 54.6875 
L 18.109375 54.6875 
L 18.109375 46.390625 
Q 20.953125 51.265625 25.265625 53.625 
Q 29.59375 56 35.59375 56 
Q 45.5625 56 51.78125 48.09375 
Q 58.015625 40.1875 58.015625 27.296875 
Q 58.015625 14.40625 51.78125 6.484375 
Q 45.5625 -1.421875 35.59375 -1.421875 
Q 29.59375 -1.421875 25.265625 0.953125 
Q 20.953125 3.328125 18.109375 8.203125 
z
M 48.6875 27.296875 
Q 48.6875 37.203125 44.609375 42.84375 
Q 40.53125 48.484375 33.40625 48.484375 
Q 26.265625 48.484375 22.1875 42.84375 
Q 18.109375 37.203125 18.109375 27.296875 
Q 18.109375 17.390625 22.1875 11.75 
Q 26.265625 6.109375 33.40625 6.109375 
Q 40.53125 6.109375 44.609375 11.75 
Q 48.6875 17.390625 48.6875 27.296875 
z
" id="DejaVuSans-70"/>
      <path d="M 41.109375 46.296875 
Q 39.59375 47.171875 37.8125 47.578125 
Q 36.03125 48 33.890625 48 
Q 26.265625 48 22.1875 43.046875 
Q 18.109375 38.09375 18.109375 28.8125 
L 18.109375 0 
L 9.078125 0 
L 9.078125 54.6875 
L 18.109375 54.6875 
L 18.109375 46.1875 
Q 20.953125 51.171875 25.484375 53.578125 
Q 30.03125 56 36.53125 56 
Q 37.453125 56 38.578125 55.875 
Q 39.703125 55.765625 41.0625 55.515625 
z
" id="DejaVuSans-72"/>
      <path d="M 34.28125 27.484375 
Q 23.390625 27.484375 19.1875 25 
Q 14.984375 22.515625 14.984375 16.5 
Q 14.984375 11.71875 18.140625 8.90625 
Q 21.296875 6.109375 26.703125 6.109375 
Q 34.1875 6.109375 38.703125 11.40625 
Q 43.21875 16.703125 43.21875 25.484375 
L 43.21875 27.484375 
z
M 52.203125 31.203125 
L 52.203125 0 
L 43.21875 0 
L 43.21875 8.296875 
Q 40.140625 3.328125 35.546875 0.953125 
Q 30.953125 -1.421875 24.3125 -1.421875 
Q 15.921875 -1.421875 10.953125 3.296875 
Q 6 8.015625 6 15.921875 
Q 6 25.140625 12.171875 29.828125 
Q 18.359375 34.515625 30.609375 34.515625 
L 43.21875 34.515625 
L 43.21875 35.40625 
Q 43.21875 41.609375 39.140625 45 
Q 35.0625 48.390625 27.6875 48.390625 
Q 23 48.390625 18.546875 47.265625 
Q 14.109375 46.140625 10.015625 43.890625 
L 10.015625 52.203125 
Q 14.9375 54.109375 19.578125 55.046875 
Q 24.21875 56 28.609375 56 
Q 40.484375 56 46.34375 49.84375 
Q 52.203125 43.703125 52.203125 31.203125 
z
" id="DejaVuSans-61"/>
      <path d="M 18.3125 70.21875 
L 18.3125 54.6875 
L 36.8125 54.6875 
L 36.8125 47.703125 
L 18.3125 47.703125 
L 18.3125 18.015625 
Q 18.3125 11.328125 20.140625 9.421875 
Q 21.96875 7.515625 27.59375 7.515625 
L 36.8125 7.515625 
L 36.8125 0 
L 27.59375 0 
Q 17.1875 0 13.234375 3.875 
Q 9.28125 7.765625 9.28125 18.015625 
L 9.28125 47.703125 
L 2.6875 47.703125 
L 2.6875 54.6875 
L 9.28125 54.6875 
L 9.28125 70.21875 
z
" id="DejaVuSans-74"/>
      <path d="M 8.5 21.578125 
L 8.5 54.6875 
L 17.484375 54.6875 
L 17.484375 21.921875 
Q 17.484375 14.15625 20.5 10.265625 
Q 23.53125 6.390625 29.59375 6.390625 
Q 36.859375 6.390625 41.078125 11.03125 
Q 45.3125 15.671875 45.3125 23.6875 
L 45.3125 54.6875 
L 54.296875 54.6875 
L 54.296875 0 
L 45.3125 0 
L 45.3125 8.40625 
Q 42.046875 3.421875 37.71875 1 
Q 33.40625 -1.421875 27.6875 -1.421875 
Q 18.265625 -1.421875 13.375 4.4375 
Q 8.5 10.296875 8.5 21.578125 
z
M 31.109375 56 
z
" id="DejaVuSans-75"/>
      <path id="DejaVuSans-20"/>
      <path d="M 31 75.875 
Q 24.46875 64.65625 21.28125 53.65625 
Q 18.109375 42.671875 18.109375 31.390625 
Q 18.109375 20.125 21.3125 9.0625 
Q 24.515625 -2 31 -13.1875 
L 23.1875 -13.1875 
Q 15.875 -1.703125 12.234375 9.375 
Q 8.59375 20.453125 8.59375 31.390625 
Q 8.59375 42.28125 12.203125 53.3125 
Q 15.828125 64.359375 23.1875 75.875 
z
" id="DejaVuSans-28"/>
      <path d="M 9.8125 72.90625 
L 51.703125 72.90625 
L 51.703125 64.59375 
L 19.671875 64.59375 
L 19.671875 43.109375 
L 48.578125 43.109375 
L 48.578125 34.8125 
L 19.671875 34.8125 
L 19.671875 0 
L 9.8125 0 
z
" id="DejaVuSans-46"/>
      <path d="M 8.015625 75.875 
L 15.828125 75.875 
Q 23.140625 64.359375 26.78125 53.3125 
Q 30.421875 42.28125 30.421875 31.390625 
Q 30.421875 20.453125 26.78125 9.375 
Q 23.140625 -1.703125 15.828125 -13.1875 
L 8.015625 -13.1875 
Q 14.5 -2 17.703125 9.0625 
Q 20.90625 20.125 20.90625 31.390625 
Q 20.90625 42.671875 17.703125 53.65625 
Q 14.5 64.65625 8.015625 75.875 
z
" id="DejaVuSans-29"/>
     </defs>
     <g transform="translate(45.1325 264.29375)rotate(-90)scale(0.16 -0.16)">
      <use xlink:href="#DejaVuSans-54"/>
      <use x="60.818359" xlink:href="#DejaVuSans-65"/>
      <use x="122.341797" xlink:href="#DejaVuSans-6d"/>
      <use x="219.753906" xlink:href="#DejaVuSans-70"/>
      <use x="283.230469" xlink:href="#DejaVuSans-65"/>
      <use x="344.753906" xlink:href="#DejaVuSans-72"/>
      <use x="385.867188" xlink:href="#DejaVuSans-61"/>
      <use x="447.146484" xlink:href="#DejaVuSans-74"/>
      <use x="486.355469" xlink:href="#DejaVuSans-75"/>
      <use x="549.734375" xlink:href="#DejaVuSans-72"/>
      <use x="590.816406" xlink:href="#DejaVuSans-65"/>
      <use x="652.339844" xlink:href="#DejaVuSans-20"/>
      <use x="684.126953" xlink:href="#DejaVuSans-28"/>
      <use x="723.140625" xlink:href="#DejaVuSans-46"/>
      <use x="780.660156" xlink:href="#DejaVuSans-29"/>
     </g>
    </g>
   </g>
   <g id="line2d_14">
    <path clip-path="url(#p3c4c3c74cc)" d="M 115.363636 215.856 
L 116.764942 208.512 
L 118.166248 213.408 
L 119.567554 208.512 
L 120.96886 220.752 
L 122.370166 230.544 
L 123.771472 230.544 
L 125.172777 223.2 
L 126.574083 230.544 
L 127.975389 215.856 
L 129.376695 213.408 
L 130.778001 215.856 
L 132.179307 213.408 
L 133.580613 198.72 
L 134.981919 198.72 
L 136.383225 193.824 
L 137.78453 196.272 
L 139.185836 201.168 
L 140.587142 201.168 
L 141.988448 203.616 
L 143.389754 218.304 
L 144.79106 198.72 
L 146.192366 208.512 
L 147.593672 208.512 
L 148.994977 203.616 
L 150.396283 215.856 
L 151.797589 196.272 
L 153.198895 196.272 
L 154.600201 193.824 
L 156.001507 208.512 
L 157.402813 225.648 
L 158.804119 235.44 
L 160.205424 237.888 
L 161.60673 235.44 
L 163.008036 237.888 
L 164.409342 235.44 
L 165.810648 235.44 
L 167.211954 213.408 
L 168.61326 198.72 
L 170.014566 186.48 
L 172.817177 196.272 
L 174.218483 198.72 
L 175.619789 181.584 
L 177.021095 179.136 
L 178.422401 169.344 
L 182.626318 186.48 
L 184.027624 174.24 
L 185.42893 203.616 
L 186.830236 196.272 
L 189.632848 191.376 
L 191.034154 186.48 
L 192.43546 186.48 
L 193.836765 203.616 
L 195.238071 198.72 
L 196.639377 225.648 
L 198.040683 230.544 
L 199.441989 225.648 
L 200.843295 215.856 
L 202.244601 198.72 
L 203.645907 186.48 
L 205.047212 176.688 
L 206.448518 191.376 
L 209.25113 191.376 
L 210.652436 174.24 
L 212.053742 201.168 
L 213.455048 208.512 
L 214.856354 196.272 
L 216.257659 176.688 
L 217.658965 179.136 
L 219.060271 169.344 
L 220.461577 174.24 
L 221.862883 203.616 
L 223.264189 196.272 
L 224.665495 191.376 
L 226.066801 176.688 
L 227.468106 179.136 
L 228.869412 179.136 
L 230.270718 169.344 
L 231.672024 169.344 
L 233.07333 213.408 
L 234.474636 208.512 
L 237.277248 174.24 
L 238.678553 196.272 
L 240.079859 193.824 
L 241.481165 218.304 
L 242.882471 223.2 
L 244.283777 203.616 
L 247.086389 193.824 
L 248.487695 176.688 
L 249.889001 164.448 
L 251.290306 154.656 
L 252.691612 147.312 
L 254.092918 149.76 
L 255.494224 149.76 
L 256.89553 154.656 
L 258.296836 157.104 
L 259.698142 174.24 
L 261.099448 157.104 
L 262.500753 152.208 
L 263.902059 152.208 
L 265.303365 169.344 
L 266.704671 157.104 
L 268.105977 149.76 
L 269.507283 147.312 
L 270.908589 186.48 
L 272.309895 186.48 
L 273.7112 169.344 
L 275.112506 191.376 
L 276.513812 198.72 
L 277.915118 181.584 
L 279.316424 176.688 
L 280.71773 159.552 
L 282.119036 159.552 
L 283.520342 154.656 
L 284.921647 132.624 
L 286.322953 135.072 
L 287.724259 147.312 
L 289.125565 169.344 
L 290.526871 198.72 
L 291.928177 186.48 
L 293.329483 169.344 
L 294.730789 196.272 
L 297.5334 176.688 
L 298.934706 169.344 
L 301.737318 149.76 
L 303.138624 132.624 
L 304.53993 125.28 
L 305.941236 120.384 
L 307.342541 142.416 
L 308.743847 154.656 
L 310.145153 191.376 
L 311.546459 191.376 
L 312.947765 181.584 
L 314.349071 154.656 
L 317.151683 130.176 
L 318.552988 115.488 
L 319.954294 120.384 
L 321.3556 130.176 
L 322.756906 142.416 
L 324.158212 130.176 
L 325.559518 137.52 
L 326.960824 132.624 
L 328.36213 132.624 
L 329.763435 135.072 
L 331.164741 115.488 
L 332.566047 125.28 
L 333.967353 120.384 
L 335.368659 120.384 
L 336.769965 110.592 
L 338.171271 105.696 
L 339.572577 115.488 
L 340.973882 120.384 
L 342.375188 120.384 
L 343.776494 130.176 
L 345.1778 142.416 
L 346.579106 137.52 
L 347.980412 149.76 
L 349.381718 147.312 
L 350.783024 149.76 
L 352.184329 132.624 
L 353.585635 120.384 
L 354.986941 110.592 
L 356.388247 120.384 
L 357.789553 120.384 
L 359.190859 113.04 
L 360.592165 115.488 
L 361.993471 147.312 
L 363.394776 125.28 
L 364.796082 113.04 
L 366.197388 105.696 
L 367.598694 103.248 
L 370.401306 103.248 
L 371.802612 105.696 
L 373.203918 113.04 
L 376.006529 113.04 
L 378.809141 108.144 
L 380.210447 110.592 
L 383.013059 130.176 
L 384.414365 115.488 
L 385.815671 98.352 
L 387.216976 115.488 
L 388.618282 120.384 
L 390.019588 115.488 
L 391.420894 115.488 
L 394.223506 125.28 
L 395.624812 125.28 
L 397.026118 127.728 
L 398.427423 120.384 
L 399.828729 105.696 
L 401.230035 103.248 
L 402.631341 103.248 
L 404.032647 110.592 
L 405.433953 108.144 
L 406.835259 142.416 
L 408.236565 120.384 
L 409.63787 110.592 
L 411.039176 110.592 
L 412.440482 105.696 
L 413.841788 127.728 
L 415.243094 164.448 
L 416.6444 135.072 
L 418.045706 130.176 
L 419.447012 130.176 
L 422.249623 125.28 
L 423.650929 120.384 
L 425.052235 120.384 
L 426.453541 127.728 
L 427.854847 125.28 
L 430.657459 125.28 
L 434.861376 110.592 
L 437.663988 130.176 
L 439.065294 147.312 
L 440.4666 135.072 
L 441.867906 125.28 
L 443.269211 132.624 
L 444.670517 135.072 
L 446.071823 132.624 
L 447.473129 132.624 
L 448.874435 127.728 
L 451.677047 113.04 
L 454.479658 113.04 
L 455.880964 120.384 
L 458.683576 120.384 
L 460.084882 125.28 
L 461.486188 127.728 
L 462.887494 125.28 
L 464.2888 125.28 
L 465.690105 137.52 
L 467.091411 142.416 
L 468.492717 132.624 
L 469.894023 127.728 
L 471.295329 125.28 
L 472.696635 125.28 
L 475.499247 115.488 
L 476.900552 120.384 
L 478.301858 120.384 
L 479.703164 142.416 
L 481.10447 147.312 
L 482.505776 137.52 
L 483.907082 147.312 
L 485.308388 137.52 
L 486.709694 132.624 
L 488.110999 130.176 
L 489.512305 135.072 
L 490.913611 149.76 
L 492.314917 181.584 
L 493.716223 176.688 
L 495.117529 169.344 
L 496.518835 169.344 
L 497.920141 154.656 
L 499.321447 159.552 
L 500.722752 147.312 
L 503.525364 137.52 
L 506.327976 137.52 
L 507.729282 147.312 
L 509.130588 142.416 
L 510.531894 149.76 
L 511.933199 147.312 
L 513.334505 142.416 
L 514.735811 159.552 
L 516.137117 154.656 
L 517.538423 164.448 
L 518.939729 171.792 
L 520.341035 171.792 
L 523.143646 157.104 
L 524.544952 154.656 
L 525.946258 171.792 
L 527.347564 164.448 
L 528.74887 154.656 
L 530.150176 149.76 
L 531.551482 164.448 
L 532.952788 181.584 
L 534.354093 186.48 
L 535.755399 176.688 
L 537.156705 169.344 
L 538.558011 164.448 
L 539.959317 181.584 
L 541.360623 215.856 
L 542.761929 208.512 
L 544.163235 213.408 
L 545.56454 201.168 
L 546.965846 181.584 
L 548.367152 174.24 
L 549.768458 174.24 
L 551.169764 169.344 
L 552.57107 174.24 
L 553.972376 171.792 
L 555.373682 203.616 
L 556.774987 193.824 
L 558.176293 186.48 
L 560.978905 196.272 
L 562.380211 218.304 
L 563.781517 218.304 
L 565.182823 215.856 
L 566.584129 203.616 
L 567.985434 208.512 
L 569.38674 203.616 
L 570.788046 213.408 
L 573.590658 213.408 
L 574.991964 208.512 
L 576.39327 198.72 
L 577.794576 193.824 
L 579.195881 198.72 
L 580.597187 181.584 
L 581.998493 208.512 
L 583.399799 220.752 
L 584.801105 247.68 
L 586.202411 223.2 
L 587.603717 215.856 
L 589.005023 223.2 
L 590.406328 215.856 
L 591.807634 215.856 
L 593.20894 208.512 
L 594.610246 208.512 
L 596.011552 223.2 
L 597.412858 218.304 
L 598.814164 237.888 
L 600.21547 230.544 
L 604.419387 252.576 
L 605.820693 240.336 
L 607.221999 237.888 
L 608.623305 242.784 
L 610.024611 279.504 
L 612.827223 220.752 
L 614.228528 203.616 
L 615.629834 223.2 
L 617.03114 240.336 
L 618.432446 245.232 
L 619.833752 257.472 
L 621.235058 247.68 
L 622.636364 252.576 
L 622.636364 252.576 
" style="fill:none;stroke:#ff0000;stroke-linecap:square;stroke-width:1.5;"/>
   </g>
   <g id="line2d_15">
    <path clip-path="url(#p3c4c3c74cc)" d="M 115.363636 311.328 
L 116.764942 301.536 
L 119.567554 301.536 
L 120.96886 306.432 
L 122.370166 313.776 
L 123.771472 296.64 
L 125.172777 318.672 
L 126.574083 303.984 
L 127.975389 306.432 
L 129.376695 296.64 
L 130.778001 284.4 
L 132.179307 301.536 
L 133.580613 296.64 
L 134.981919 296.64 
L 136.383225 303.984 
L 137.78453 301.536 
L 139.185836 301.536 
L 140.587142 303.984 
L 141.988448 296.64 
L 143.389754 301.536 
L 144.79106 286.848 
L 146.192366 303.984 
L 147.593672 269.712 
L 148.994977 274.608 
L 150.396283 289.296 
L 151.797589 301.536 
L 153.198895 286.848 
L 154.600201 284.4 
L 156.001507 242.784 
L 157.402813 267.264 
L 158.804119 289.296 
L 160.205424 308.88 
L 161.60673 306.432 
L 163.008036 311.328 
L 164.409342 303.984 
L 165.810648 284.4 
L 167.211954 284.4 
L 168.61326 264.816 
L 170.014566 274.608 
L 171.415871 257.472 
L 172.817177 279.504 
L 174.218483 279.504 
L 175.619789 286.848 
L 177.021095 279.504 
L 182.626318 279.504 
L 184.027624 267.264 
L 185.42893 279.504 
L 186.830236 284.4 
L 188.231542 284.4 
L 189.632848 279.504 
L 192.43546 279.504 
L 193.836765 267.264 
L 195.238071 240.336 
L 196.639377 259.92 
L 198.040683 264.816 
L 199.441989 279.504 
L 200.843295 274.608 
L 202.244601 252.576 
L 203.645907 269.712 
L 205.047212 247.68 
L 206.448518 242.784 
L 207.849824 262.368 
L 209.25113 252.576 
L 210.652436 257.472 
L 213.455048 247.68 
L 214.856354 267.264 
L 216.257659 279.504 
L 217.658965 252.576 
L 219.060271 267.264 
L 220.461577 230.544 
L 221.862883 264.816 
L 223.264189 281.952 
L 224.665495 274.608 
L 226.066801 262.368 
L 227.468106 257.472 
L 230.270718 262.368 
L 231.672024 269.712 
L 233.07333 240.336 
L 234.474636 247.68 
L 235.875942 279.504 
L 237.277248 247.68 
L 238.678553 247.68 
L 240.079859 264.816 
L 241.481165 259.92 
L 242.882471 264.816 
L 244.283777 286.848 
L 245.685083 257.472 
L 247.086389 279.504 
L 248.487695 252.576 
L 249.889001 252.576 
L 251.290306 257.472 
L 252.691612 230.544 
L 254.092918 245.232 
L 255.494224 237.888 
L 256.89553 242.784 
L 258.296836 242.784 
L 259.698142 240.336 
L 261.099448 242.784 
L 262.500753 240.336 
L 263.902059 242.784 
L 265.303365 220.752 
L 266.704671 240.336 
L 268.105977 230.544 
L 269.507283 240.336 
L 270.908589 230.544 
L 272.309895 259.92 
L 273.7112 252.576 
L 275.112506 242.784 
L 276.513812 252.576 
L 277.915118 267.264 
L 279.316424 252.576 
L 280.71773 235.44 
L 283.520342 240.336 
L 286.322953 235.44 
L 287.724259 198.72 
L 289.125565 215.856 
L 290.526871 252.576 
L 291.928177 259.92 
L 293.329483 247.68 
L 294.730789 215.856 
L 297.5334 225.648 
L 298.934706 235.44 
L 300.336012 235.44 
L 301.737318 247.68 
L 303.138624 237.888 
L 305.941236 203.616 
L 307.342541 201.168 
L 308.743847 220.752 
L 310.145153 230.544 
L 311.546459 247.68 
L 312.947765 242.784 
L 314.349071 247.68 
L 315.750377 215.856 
L 317.151683 220.752 
L 318.552988 213.408 
L 319.954294 215.856 
L 321.3556 198.72 
L 322.756906 230.544 
L 324.158212 235.44 
L 325.559518 203.616 
L 326.960824 235.44 
L 328.36213 213.408 
L 329.763435 230.544 
L 331.164741 220.752 
L 332.566047 218.304 
L 333.967353 218.304 
L 335.368659 215.856 
L 336.769965 196.272 
L 338.171271 193.824 
L 339.572577 193.824 
L 340.973882 191.376 
L 342.375188 203.616 
L 343.776494 186.48 
L 345.1778 218.304 
L 346.579106 213.408 
L 347.980412 191.376 
L 349.381718 213.408 
L 350.783024 223.2 
L 352.184329 223.2 
L 353.585635 215.856 
L 354.986941 213.408 
L 356.388247 208.512 
L 357.789553 213.408 
L 359.190859 213.408 
L 360.592165 201.168 
L 361.993471 176.688 
L 363.394776 213.408 
L 364.796082 203.616 
L 366.197388 208.512 
L 367.598694 203.616 
L 369 179.136 
L 370.401306 191.376 
L 371.802612 191.376 
L 373.203918 186.48 
L 376.006529 186.48 
L 377.407835 174.24 
L 378.809141 181.584 
L 380.210447 191.376 
L 381.611753 191.376 
L 383.013059 201.168 
L 384.414365 201.168 
L 385.815671 196.272 
L 387.216976 164.448 
L 388.618282 171.792 
L 390.019588 176.688 
L 391.420894 191.376 
L 392.8222 196.272 
L 394.223506 186.48 
L 395.624812 198.72 
L 397.026118 193.824 
L 398.427423 198.72 
L 399.828729 193.824 
L 401.230035 203.616 
L 402.631341 186.48 
L 404.032647 191.376 
L 405.433953 171.792 
L 406.835259 169.344 
L 408.236565 186.48 
L 409.63787 186.48 
L 411.039176 181.584 
L 412.440482 186.48 
L 413.841788 186.48 
L 415.243094 203.616 
L 416.6444 213.408 
L 418.045706 208.512 
L 422.249623 208.512 
L 423.650929 196.272 
L 425.052235 201.168 
L 426.453541 191.376 
L 427.854847 191.376 
L 429.256153 186.48 
L 430.657459 196.272 
L 432.058764 208.512 
L 433.46007 208.512 
L 434.861376 213.408 
L 436.262682 191.376 
L 437.663988 208.512 
L 439.065294 208.512 
L 440.4666 220.752 
L 443.269211 196.272 
L 444.670517 208.512 
L 446.071823 213.408 
L 447.473129 213.408 
L 448.874435 220.752 
L 450.275741 213.408 
L 451.677047 215.856 
L 453.078353 208.512 
L 454.479658 191.376 
L 455.880964 215.856 
L 457.28227 203.616 
L 458.683576 203.616 
L 460.084882 213.408 
L 461.486188 215.856 
L 462.887494 213.408 
L 464.2888 196.272 
L 465.690105 186.48 
L 467.091411 208.512 
L 468.492717 218.304 
L 469.894023 218.304 
L 471.295329 213.408 
L 472.696635 213.408 
L 474.097941 201.168 
L 475.499247 193.824 
L 478.301858 193.824 
L 479.703164 191.376 
L 481.10447 225.648 
L 482.505776 220.752 
L 483.907082 213.408 
L 485.308388 220.752 
L 486.709694 223.2 
L 488.110999 235.44 
L 489.512305 198.72 
L 490.913611 213.408 
L 492.314917 223.2 
L 493.716223 245.232 
L 495.117529 230.544 
L 496.518835 245.232 
L 497.920141 240.336 
L 499.321447 245.232 
L 500.722752 257.472 
L 502.124058 245.232 
L 503.525364 240.336 
L 504.92667 240.336 
L 506.327976 235.44 
L 509.130588 235.44 
L 510.531894 242.784 
L 511.933199 247.68 
L 513.334505 242.784 
L 514.735811 257.472 
L 516.137117 257.472 
L 517.538423 220.752 
L 518.939729 252.576 
L 520.341035 247.68 
L 521.742341 252.576 
L 523.143646 240.336 
L 525.946258 245.232 
L 527.347564 257.472 
L 528.74887 257.472 
L 530.150176 252.576 
L 531.551482 215.856 
L 532.952788 242.784 
L 534.354093 262.368 
L 535.755399 262.368 
L 537.156705 264.816 
L 538.558011 259.92 
L 539.959317 252.576 
L 541.360623 257.472 
L 542.761929 279.504 
L 544.163235 269.712 
L 545.56454 291.744 
L 546.965846 279.504 
L 548.367152 269.712 
L 549.768458 267.264 
L 551.169764 267.264 
L 552.57107 259.92 
L 553.972376 264.816 
L 555.373682 264.816 
L 556.774987 274.608 
L 558.176293 264.816 
L 559.577599 252.576 
L 560.978905 279.504 
L 562.380211 281.952 
L 563.781517 303.984 
L 565.182823 301.536 
L 566.584129 281.952 
L 567.985434 279.504 
L 569.38674 267.264 
L 570.788046 281.952 
L 572.189352 274.608 
L 573.590658 296.64 
L 574.991964 296.64 
L 577.794576 286.848 
L 579.195881 289.296 
L 580.597187 262.368 
L 581.998493 242.784 
L 583.399799 274.608 
L 584.801105 262.368 
L 586.202411 247.68 
L 589.005023 257.472 
L 590.406328 267.264 
L 591.807634 274.608 
L 593.20894 274.608 
L 594.610246 279.504 
L 596.011552 279.504 
L 597.412858 269.712 
L 598.814164 257.472 
L 600.21547 279.504 
L 601.616775 291.744 
L 603.018081 291.744 
L 604.419387 286.848 
L 605.820693 279.504 
L 607.221999 289.296 
L 608.623305 289.296 
L 610.024611 281.952 
L 612.827223 274.608 
L 614.228528 284.4 
L 615.629834 281.952 
L 617.03114 269.712 
L 619.833752 303.984 
L 621.235058 308.88 
L 622.636364 318.672 
L 622.636364 318.672 
" style="fill:none;stroke:#0000ff;stroke-linecap:square;stroke-width:1.5;"/>
   </g>
   <g id="line2d_16">
    <path clip-path="url(#p3c4c3c74cc)" d="M 115.363636 257.472 
L 116.764942 269.712 
L 118.166248 274.608 
L 119.567554 264.816 
L 120.96886 262.368 
L 125.172777 262.368 
L 126.574083 269.712 
L 127.975389 274.608 
L 129.376695 281.952 
L 130.778001 264.816 
L 132.179307 252.576 
L 134.981919 252.576 
L 136.383225 245.232 
L 137.78453 235.44 
L 139.185836 252.576 
L 140.587142 259.92 
L 141.988448 257.472 
L 143.389754 237.888 
L 144.79106 237.888 
L 146.192366 235.44 
L 147.593672 252.576 
L 148.994977 257.472 
L 150.396283 257.472 
L 151.797589 235.44 
L 153.198895 262.368 
L 156.001507 267.264 
L 157.402813 279.504 
L 158.804119 274.608 
L 160.205424 267.264 
L 161.60673 279.504 
L 163.008036 286.848 
L 164.409342 284.4 
L 165.810648 291.744 
L 167.211954 281.952 
L 168.61326 289.296 
L 170.014566 301.536 
L 171.415871 291.744 
L 172.817177 301.536 
L 174.218483 289.296 
L 177.021095 274.608 
L 178.422401 262.368 
L 179.823707 279.504 
L 181.225013 279.504 
L 182.626318 274.608 
L 185.42893 284.4 
L 186.830236 279.504 
L 188.231542 289.296 
L 189.632848 279.504 
L 191.034154 274.608 
L 192.43546 259.92 
L 193.836765 257.472 
L 195.238071 264.816 
L 196.639377 257.472 
L 198.040683 267.264 
L 199.441989 284.4 
L 200.843295 296.64 
L 202.244601 301.536 
L 203.645907 281.952 
L 205.047212 279.504 
L 206.448518 259.92 
L 207.849824 259.92 
L 209.25113 269.712 
L 210.652436 257.472 
L 213.455048 262.368 
L 214.856354 259.92 
L 217.658965 264.816 
L 219.060271 274.608 
L 220.461577 264.816 
L 221.862883 274.608 
L 223.264189 267.264 
L 224.665495 267.264 
L 226.066801 262.368 
L 227.468106 259.92 
L 230.270718 264.816 
L 231.672024 257.472 
L 233.07333 262.368 
L 234.474636 262.368 
L 235.875942 252.576 
L 237.277248 245.232 
L 238.678553 247.68 
L 240.079859 252.576 
L 241.481165 267.264 
L 242.882471 267.264 
L 244.283777 259.92 
L 245.685083 262.368 
L 247.086389 259.92 
L 248.487695 252.576 
L 249.889001 252.576 
L 252.691612 267.264 
L 254.092918 264.816 
L 255.494224 247.68 
L 256.89553 257.472 
L 259.698142 257.472 
L 261.099448 259.92 
L 262.500753 240.336 
L 263.902059 252.576 
L 265.303365 252.576 
L 266.704671 242.784 
L 268.105977 240.336 
L 269.507283 257.472 
L 270.908589 247.68 
L 272.309895 257.472 
L 273.7112 247.68 
L 275.112506 247.68 
L 276.513812 240.336 
L 277.915118 252.576 
L 279.316424 247.68 
L 280.71773 247.68 
L 282.119036 230.544 
L 283.520342 203.616 
L 284.921647 196.272 
L 286.322953 208.512 
L 287.724259 223.2 
L 289.125565 245.232 
L 290.526871 245.232 
L 291.928177 240.336 
L 294.730789 220.752 
L 296.132094 242.784 
L 297.5334 252.576 
L 298.934706 230.544 
L 300.336012 225.648 
L 301.737318 242.784 
L 303.138624 230.544 
L 304.53993 198.72 
L 305.941236 230.544 
L 307.342541 245.232 
L 310.145153 245.232 
L 311.546459 230.544 
L 312.947765 225.648 
L 315.750377 235.44 
L 317.151683 213.408 
L 318.552988 230.544 
L 319.954294 237.888 
L 321.3556 242.784 
L 322.756906 230.544 
L 324.158212 240.336 
L 325.559518 240.336 
L 326.960824 235.44 
L 328.36213 235.44 
L 329.763435 247.68 
L 331.164741 223.2 
L 332.566047 235.44 
L 333.967353 225.648 
L 335.368659 235.44 
L 336.769965 237.888 
L 338.171271 230.544 
L 339.572577 225.648 
L 340.973882 225.648 
L 342.375188 230.544 
L 343.776494 237.888 
L 345.1778 235.44 
L 346.579106 225.648 
L 347.980412 225.648 
L 350.783024 235.44 
L 352.184329 225.648 
L 353.585635 230.544 
L 354.986941 223.2 
L 356.388247 230.544 
L 357.789553 230.544 
L 359.190859 237.888 
L 360.592165 235.44 
L 361.993471 225.648 
L 363.394776 213.408 
L 364.796082 208.512 
L 366.197388 215.856 
L 367.598694 230.544 
L 370.401306 196.272 
L 371.802612 213.408 
L 373.203918 225.648 
L 374.605224 201.168 
L 376.006529 218.304 
L 377.407835 220.752 
L 378.809141 235.44 
L 380.210447 230.544 
L 381.611753 220.752 
L 383.013059 230.544 
L 384.414365 225.648 
L 385.815671 230.544 
L 387.216976 220.752 
L 388.618282 213.408 
L 390.019588 220.752 
L 391.420894 225.648 
L 392.8222 215.856 
L 395.624812 230.544 
L 397.026118 201.168 
L 398.427423 215.856 
L 399.828729 218.304 
L 401.230035 225.648 
L 402.631341 230.544 
L 404.032647 230.544 
L 405.433953 220.752 
L 406.835259 225.648 
L 408.236565 220.752 
L 409.63787 220.752 
L 411.039176 208.512 
L 412.440482 201.168 
L 413.841788 208.512 
L 415.243094 213.408 
L 416.6444 213.408 
L 418.045706 208.512 
L 419.447012 215.856 
L 420.848317 215.856 
L 422.249623 213.408 
L 423.650929 220.752 
L 425.052235 218.304 
L 426.453541 213.408 
L 427.854847 213.408 
L 429.256153 223.2 
L 430.657459 213.408 
L 432.058764 215.856 
L 433.46007 215.856 
L 434.861376 218.304 
L 436.262682 215.856 
L 437.663988 215.856 
L 439.065294 208.512 
L 440.4666 198.72 
L 441.867906 213.408 
L 443.269211 213.408 
L 444.670517 230.544 
L 446.071823 225.648 
L 447.473129 230.544 
L 448.874435 218.304 
L 450.275741 220.752 
L 451.677047 225.648 
L 453.078353 220.752 
L 454.479658 235.44 
L 455.880964 230.544 
L 457.28227 218.304 
L 458.683576 230.544 
L 460.084882 230.544 
L 461.486188 223.2 
L 462.887494 230.544 
L 467.091411 230.544 
L 468.492717 215.856 
L 469.894023 230.544 
L 472.696635 220.752 
L 474.097941 230.544 
L 475.499247 220.752 
L 476.900552 218.304 
L 478.301858 230.544 
L 479.703164 223.2 
L 481.10447 225.648 
L 482.505776 220.752 
L 483.907082 213.408 
L 485.308388 230.544 
L 486.709694 218.304 
L 488.110999 218.304 
L 489.512305 230.544 
L 490.913611 218.304 
L 492.314917 220.752 
L 493.716223 230.544 
L 495.117529 230.544 
L 496.518835 237.888 
L 497.920141 237.888 
L 499.321447 235.44 
L 500.722752 230.544 
L 502.124058 235.44 
L 503.525364 235.44 
L 504.92667 252.576 
L 506.327976 257.472 
L 507.729282 252.576 
L 509.130588 235.44 
L 510.531894 237.888 
L 511.933199 245.232 
L 513.334505 240.336 
L 514.735811 240.336 
L 516.137117 245.232 
L 517.538423 237.888 
L 518.939729 242.784 
L 520.341035 235.44 
L 521.742341 242.784 
L 524.544952 247.68 
L 525.946258 242.784 
L 530.150176 257.472 
L 531.551482 247.68 
L 532.952788 257.472 
L 534.354093 247.68 
L 535.755399 259.92 
L 537.156705 247.68 
L 538.558011 252.576 
L 539.959317 264.816 
L 541.360623 257.472 
L 544.163235 257.472 
L 545.56454 259.92 
L 546.965846 259.92 
L 548.367152 257.472 
L 549.768458 247.68 
L 551.169764 252.576 
L 552.57107 262.368 
L 555.373682 262.368 
L 556.774987 264.816 
L 562.380211 264.816 
L 563.781517 259.92 
L 565.182823 242.784 
L 566.584129 257.472 
L 567.985434 262.368 
L 569.38674 252.576 
L 570.788046 264.816 
L 572.189352 267.264 
L 573.590658 264.816 
L 574.991964 274.608 
L 576.39327 274.608 
L 577.794576 281.952 
L 579.195881 291.744 
L 580.597187 281.952 
L 581.998493 279.504 
L 583.399799 281.952 
L 584.801105 259.92 
L 586.202411 274.608 
L 587.603717 279.504 
L 589.005023 274.608 
L 590.406328 259.92 
L 591.807634 247.68 
L 593.20894 242.784 
L 594.610246 259.92 
L 596.011552 259.92 
L 597.412858 257.472 
L 598.814164 267.264 
L 600.21547 257.472 
L 603.018081 247.68 
L 604.419387 262.368 
L 605.820693 264.816 
L 607.221999 259.92 
L 608.623305 257.472 
L 610.024611 257.472 
L 611.425917 267.264 
L 612.827223 259.92 
L 612.827223 259.92 
" style="fill:none;stroke:#008000;stroke-linecap:square;stroke-width:1.5;"/>
   </g>
   <g id="line2d_17">
    <path clip-path="url(#p3c4c3c74cc)" d="M 115.363636 279.504 
L 116.764942 284.4 
L 118.166248 286.848 
L 119.567554 286.848 
L 120.96886 269.712 
L 122.370166 269.712 
L 123.771472 274.608 
L 125.172777 274.608 
L 126.574083 279.504 
L 127.975389 296.64 
L 129.376695 296.64 
L 130.778001 286.848 
L 132.179307 279.504 
L 133.580613 267.264 
L 134.981919 269.712 
L 136.383225 257.472 
L 137.78453 262.368 
L 139.185836 274.608 
L 140.587142 279.504 
L 141.988448 269.712 
L 143.389754 257.472 
L 144.79106 252.576 
L 146.192366 262.368 
L 147.593672 274.608 
L 150.396283 284.4 
L 151.797589 262.368 
L 153.198895 279.504 
L 154.600201 289.296 
L 156.001507 296.64 
L 157.402813 301.536 
L 160.205424 301.536 
L 161.60673 296.64 
L 163.008036 308.88 
L 165.810648 318.672 
L 167.211954 313.776 
L 168.61326 318.672 
L 170.014566 308.88 
L 171.415871 318.672 
L 172.817177 323.568 
L 174.218483 326.016 
L 175.619789 296.64 
L 177.021095 289.296 
L 178.422401 301.536 
L 181.225013 291.744 
L 182.626318 301.536 
L 188.231542 301.536 
L 189.632848 303.984 
L 191.034154 313.776 
L 192.43546 296.64 
L 193.836765 284.4 
L 195.238071 289.296 
L 196.639377 289.296 
L 198.040683 301.536 
L 199.441989 306.432 
L 200.843295 313.776 
L 202.244601 308.88 
L 203.645907 318.672 
L 205.047212 323.568 
L 206.448518 291.744 
L 207.849824 269.712 
L 209.25113 281.952 
L 210.652436 284.4 
L 212.053742 274.608 
L 213.455048 279.504 
L 214.856354 274.608 
L 216.257659 284.4 
L 217.658965 284.4 
L 219.060271 286.848 
L 220.461577 284.4 
L 221.862883 286.848 
L 223.264189 291.744 
L 224.665495 301.536 
L 226.066801 296.64 
L 227.468106 286.848 
L 228.869412 296.64 
L 230.270718 279.504 
L 231.672024 279.504 
L 233.07333 274.608 
L 234.474636 279.504 
L 235.875942 296.64 
L 237.277248 289.296 
L 238.678553 284.4 
L 241.481165 284.4 
L 242.882471 289.296 
L 244.283777 291.744 
L 245.685083 296.64 
L 247.086389 274.608 
L 249.889001 274.608 
L 251.290306 279.504 
L 252.691612 281.952 
L 254.092918 279.504 
L 255.494224 289.296 
L 256.89553 296.64 
L 258.296836 284.4 
L 259.698142 274.608 
L 261.099448 267.264 
L 262.500753 269.712 
L 263.902059 267.264 
L 265.303365 274.608 
L 266.704671 257.472 
L 268.105977 262.368 
L 269.507283 279.504 
L 270.908589 284.4 
L 272.309895 269.712 
L 275.112506 279.504 
L 276.513812 267.264 
L 280.71773 267.264 
L 282.119036 274.608 
L 283.520342 269.712 
L 284.921647 235.44 
L 287.724259 269.712 
L 289.125565 262.368 
L 293.329483 262.368 
L 294.730789 264.816 
L 296.132094 252.576 
L 297.5334 257.472 
L 298.934706 259.92 
L 300.336012 247.68 
L 301.737318 252.576 
L 303.138624 252.576 
L 304.53993 257.472 
L 305.941236 247.68 
L 308.743847 257.472 
L 311.546459 262.368 
L 312.947765 269.712 
L 314.349071 262.368 
L 315.750377 257.472 
L 317.151683 262.368 
L 318.552988 259.92 
L 319.954294 247.68 
L 321.3556 252.576 
L 322.756906 252.576 
L 324.158212 247.68 
L 325.559518 257.472 
L 326.960824 259.92 
L 328.36213 257.472 
L 329.763435 262.368 
L 332.566047 257.472 
L 333.967353 262.368 
L 335.368659 247.68 
L 336.769965 252.576 
L 339.572577 252.576 
L 340.973882 259.92 
L 342.375188 242.784 
L 343.776494 252.576 
L 346.579106 252.576 
L 347.980412 259.92 
L 349.381718 252.576 
L 352.184329 262.368 
L 354.986941 242.784 
L 356.388247 240.336 
L 357.789553 242.784 
L 360.592165 252.576 
L 361.993471 252.576 
L 363.394776 247.68 
L 364.796082 237.888 
L 366.197388 242.784 
L 367.598694 240.336 
L 369 247.68 
L 370.401306 235.44 
L 371.802612 240.336 
L 373.203918 242.784 
L 374.605224 247.68 
L 376.006529 235.44 
L 377.407835 235.44 
L 378.809141 240.336 
L 381.611753 240.336 
L 384.414365 235.44 
L 388.618282 235.44 
L 390.019588 242.784 
L 391.420894 245.232 
L 392.8222 245.232 
L 394.223506 237.888 
L 395.624812 242.784 
L 397.026118 242.784 
L 398.427423 235.44 
L 399.828729 235.44 
L 402.631341 240.336 
L 404.032647 240.336 
L 405.433953 235.44 
L 408.236565 245.232 
L 409.63787 237.888 
L 411.039176 247.68 
L 413.841788 242.784 
L 415.243094 242.784 
L 416.6444 230.544 
L 418.045706 240.336 
L 419.447012 235.44 
L 420.848317 247.68 
L 422.249623 235.44 
L 423.650929 230.544 
L 425.052235 230.544 
L 426.453541 225.648 
L 429.256153 235.44 
L 430.657459 230.544 
L 432.058764 235.44 
L 433.46007 242.784 
L 434.861376 235.44 
L 436.262682 235.44 
L 437.663988 242.784 
L 439.065294 252.576 
L 440.4666 247.68 
L 441.867906 235.44 
L 444.670517 235.44 
L 446.071823 240.336 
L 447.473129 240.336 
L 448.874435 245.232 
L 450.275741 247.68 
L 451.677047 245.232 
L 453.078353 252.576 
L 454.479658 247.68 
L 455.880964 252.576 
L 457.28227 252.576 
L 458.683576 242.784 
L 460.084882 242.784 
L 461.486188 237.888 
L 462.887494 240.336 
L 464.2888 247.68 
L 465.690105 257.472 
L 467.091411 257.472 
L 468.492717 247.68 
L 469.894023 240.336 
L 471.295329 240.336 
L 472.696635 235.44 
L 474.097941 240.336 
L 476.900552 240.336 
L 478.301858 252.576 
L 479.703164 235.44 
L 482.505776 245.232 
L 483.907082 242.784 
L 485.308388 257.472 
L 486.709694 257.472 
L 488.110999 252.576 
L 489.512305 240.336 
L 490.913611 242.784 
L 492.314917 242.784 
L 493.716223 247.68 
L 495.117529 259.92 
L 496.518835 262.368 
L 497.920141 279.504 
L 499.321447 274.608 
L 500.722752 242.784 
L 503.525364 252.576 
L 504.92667 267.264 
L 506.327976 279.504 
L 507.729282 284.4 
L 509.130588 264.816 
L 510.531894 252.576 
L 511.933199 252.576 
L 513.334505 257.472 
L 514.735811 274.608 
L 516.137117 257.472 
L 517.538423 252.576 
L 518.939729 257.472 
L 520.341035 279.504 
L 521.742341 262.368 
L 523.143646 259.92 
L 524.544952 267.264 
L 525.946258 257.472 
L 527.347564 274.608 
L 528.74887 274.608 
L 530.150176 281.952 
L 531.551482 279.504 
L 535.755399 279.504 
L 537.156705 267.264 
L 538.558011 274.608 
L 539.959317 274.608 
L 541.360623 269.712 
L 542.761929 274.608 
L 544.163235 281.952 
L 545.56454 279.504 
L 546.965846 284.4 
L 548.367152 284.4 
L 549.768458 259.92 
L 551.169764 279.504 
L 553.972376 284.4 
L 555.373682 289.296 
L 556.774987 296.64 
L 558.176293 301.536 
L 560.978905 301.536 
L 562.380211 286.848 
L 563.781517 279.504 
L 565.182823 264.816 
L 566.584129 274.608 
L 567.985434 286.848 
L 569.38674 274.608 
L 570.788046 279.504 
L 572.189352 279.504 
L 573.590658 274.608 
L 574.991964 291.744 
L 576.39327 301.536 
L 577.794576 301.536 
L 579.195881 308.88 
L 580.597187 301.536 
L 581.998493 291.744 
L 583.399799 296.64 
L 584.801105 281.952 
L 586.202411 301.536 
L 587.603717 301.536 
L 589.005023 291.744 
L 590.406328 279.504 
L 591.807634 259.92 
L 593.20894 262.368 
L 594.610246 269.712 
L 596.011552 281.952 
L 597.412858 274.608 
L 598.814164 279.504 
L 600.21547 274.608 
L 601.616775 257.472 
L 603.018081 264.816 
L 604.419387 279.504 
L 605.820693 286.848 
L 607.221999 269.712 
L 608.623305 267.264 
L 610.024611 269.712 
L 611.425917 279.504 
L 612.827223 274.608 
L 612.827223 274.608 
" style="fill:none;stroke:#ffff00;stroke-linecap:square;stroke-width:1.5;"/>
   </g>
   <g id="patch_3">
    <path d="M 90 345.6 
L 90 51.84 
" style="fill:none;stroke:#000000;stroke-linecap:square;stroke-linejoin:miter;stroke-width:0.8;"/>
   </g>
   <g id="patch_4">
    <path d="M 648 345.6 
L 648 51.84 
" style="fill:none;stroke:#000000;stroke-linecap:square;stroke-linejoin:miter;stroke-width:0.8;"/>
   </g>
   <g id="patch_5">
    <path d="M 90 345.6 
L 648 345.6 
" style="fill:none;stroke:#000000;stroke-linecap:square;stroke-linejoin:miter;stroke-width:0.8;"/>
   </g>
   <g id="patch_6">
    <path d="M 90 51.84 
L 648 51.84 
" style="fill:none;stroke:#000000;stroke-linecap:square;stroke-linejoin:miter;stroke-width:0.8;"/>
   </g>
   <g id="text_15">
    <!-- Daily high temperatures - 2014 -->
    <defs>
     <path d="M 19.671875 64.796875 
L 19.671875 8.109375 
L 31.59375 8.109375 
Q 46.6875 8.109375 53.6875 14.9375 
Q 60.6875 21.78125 60.6875 36.53125 
Q 60.6875 51.171875 53.6875 57.984375 
Q 46.6875 64.796875 31.59375 64.796875 
z
M 9.8125 72.90625 
L 30.078125 72.90625 
Q 51.265625 72.90625 61.171875 64.09375 
Q 71.09375 55.28125 71.09375 36.53125 
Q 71.09375 17.671875 61.125 8.828125 
Q 51.171875 0 30.078125 0 
L 9.8125 0 
z
" id="DejaVuSans-44"/>
     <path d="M 9.421875 54.6875 
L 18.40625 54.6875 
L 18.40625 0 
L 9.421875 0 
z
M 9.421875 75.984375 
L 18.40625 75.984375 
L 18.40625 64.59375 
L 9.421875 64.59375 
z
" id="DejaVuSans-69"/>
     <path d="M 9.421875 75.984375 
L 18.40625 75.984375 
L 18.40625 0 
L 9.421875 0 
z
" id="DejaVuSans-6c"/>
     <path d="M 32.171875 -5.078125 
Q 28.375 -14.84375 24.75 -17.8125 
Q 21.140625 -20.796875 15.09375 -20.796875 
L 7.90625 -20.796875 
L 7.90625 -13.28125 
L 13.1875 -13.28125 
Q 16.890625 -13.28125 18.9375 -11.515625 
Q 21 -9.765625 23.484375 -3.21875 
L 25.09375 0.875 
L 2.984375 54.6875 
L 12.5 54.6875 
L 29.59375 11.921875 
L 46.6875 54.6875 
L 56.203125 54.6875 
z
" id="DejaVuSans-79"/>
     <path d="M 54.890625 33.015625 
L 54.890625 0 
L 45.90625 0 
L 45.90625 32.71875 
Q 45.90625 40.484375 42.875 44.328125 
Q 39.84375 48.1875 33.796875 48.1875 
Q 26.515625 48.1875 22.3125 43.546875 
Q 18.109375 38.921875 18.109375 30.90625 
L 18.109375 0 
L 9.078125 0 
L 9.078125 75.984375 
L 18.109375 75.984375 
L 18.109375 46.1875 
Q 21.34375 51.125 25.703125 53.5625 
Q 30.078125 56 35.796875 56 
Q 45.21875 56 50.046875 50.171875 
Q 54.890625 44.34375 54.890625 33.015625 
z
" id="DejaVuSans-68"/>
     <path d="M 45.40625 27.984375 
Q 45.40625 37.75 41.375 43.109375 
Q 37.359375 48.484375 30.078125 48.484375 
Q 22.859375 48.484375 18.828125 43.109375 
Q 14.796875 37.75 14.796875 27.984375 
Q 14.796875 18.265625 18.828125 12.890625 
Q 22.859375 7.515625 30.078125 7.515625 
Q 37.359375 7.515625 41.375 12.890625 
Q 45.40625 18.265625 45.40625 27.984375 
z
M 54.390625 6.78125 
Q 54.390625 -7.171875 48.1875 -13.984375 
Q 42 -20.796875 29.203125 -20.796875 
Q 24.46875 -20.796875 20.265625 -20.09375 
Q 16.0625 -19.390625 12.109375 -17.921875 
L 12.109375 -9.1875 
Q 16.0625 -11.328125 19.921875 -12.34375 
Q 23.78125 -13.375 27.78125 -13.375 
Q 36.625 -13.375 41.015625 -8.765625 
Q 45.40625 -4.15625 45.40625 5.171875 
L 45.40625 9.625 
Q 42.625 4.78125 38.28125 2.390625 
Q 33.9375 0 27.875 0 
Q 17.828125 0 11.671875 7.65625 
Q 5.515625 15.328125 5.515625 27.984375 
Q 5.515625 40.671875 11.671875 48.328125 
Q 17.828125 56 27.875 56 
Q 33.9375 56 38.28125 53.609375 
Q 42.625 51.21875 45.40625 46.390625 
L 45.40625 54.6875 
L 54.390625 54.6875 
z
" id="DejaVuSans-67"/>
     <path d="M 44.28125 53.078125 
L 44.28125 44.578125 
Q 40.484375 46.53125 36.375 47.5 
Q 32.28125 48.484375 27.875 48.484375 
Q 21.1875 48.484375 17.84375 46.4375 
Q 14.5 44.390625 14.5 40.28125 
Q 14.5 37.15625 16.890625 35.375 
Q 19.28125 33.59375 26.515625 31.984375 
L 29.59375 31.296875 
Q 39.15625 29.25 43.1875 25.515625 
Q 47.21875 21.78125 47.21875 15.09375 
Q 47.21875 7.46875 41.1875 3.015625 
Q 35.15625 -1.421875 24.609375 -1.421875 
Q 20.21875 -1.421875 15.453125 -0.5625 
Q 10.6875 0.296875 5.421875 2 
L 5.421875 11.28125 
Q 10.40625 8.6875 15.234375 7.390625 
Q 20.0625 6.109375 24.8125 6.109375 
Q 31.15625 6.109375 34.5625 8.28125 
Q 37.984375 10.453125 37.984375 14.40625 
Q 37.984375 18.0625 35.515625 20.015625 
Q 33.0625 21.96875 24.703125 23.78125 
L 21.578125 24.515625 
Q 13.234375 26.265625 9.515625 29.90625 
Q 5.8125 33.546875 5.8125 39.890625 
Q 5.8125 47.609375 11.28125 51.796875 
Q 16.75 56 26.8125 56 
Q 31.78125 56 36.171875 55.265625 
Q 40.578125 54.546875 44.28125 53.078125 
z
" id="DejaVuSans-73"/>
    </defs>
    <g transform="translate(180.410625 45.84)scale(0.24 -0.24)">
     <use xlink:href="#DejaVuSans-44"/>
     <use x="77.001953" xlink:href="#DejaVuSans-61"/>
     <use x="138.28125" xlink:href="#DejaVuSans-69"/>
     <use x="166.064453" xlink:href="#DejaVuSans-6c"/>
     <use x="193.847656" xlink:href="#DejaVuSans-79"/>
     <use x="253.027344" xlink:href="#DejaVuSans-20"/>
     <use x="284.814453" xlink:href="#DejaVuSans-68"/>
     <use x="348.193359" xlink:href="#DejaVuSans-69"/>
     <use x="375.976562" xlink:href="#DejaVuSans-67"/>
     <use x="439.453125" xlink:href="#DejaVuSans-68"/>
     <use x="502.832031" xlink:href="#DejaVuSans-20"/>
     <use x="534.619141" xlink:href="#DejaVuSans-74"/>
     <use x="573.828125" xlink:href="#DejaVuSans-65"/>
     <use x="635.351562" xlink:href="#DejaVuSans-6d"/>
     <use x="732.763672" xlink:href="#DejaVuSans-70"/>
     <use x="796.240234" xlink:href="#DejaVuSans-65"/>
     <use x="857.763672" xlink:href="#DejaVuSans-72"/>
     <use x="898.876953" xlink:href="#DejaVuSans-61"/>
     <use x="960.15625" xlink:href="#DejaVuSans-74"/>
     <use x="999.365234" xlink:href="#DejaVuSans-75"/>
     <use x="1062.744141" xlink:href="#DejaVuSans-72"/>
     <use x="1103.826172" xlink:href="#DejaVuSans-65"/>
     <use x="1165.349609" xlink:href="#DejaVuSans-73"/>
     <use x="1217.449219" xlink:href="#DejaVuSans-20"/>
     <use x="1249.236328" xlink:href="#DejaVuSans-2d"/>
     <use x="1285.320312" xlink:href="#DejaVuSans-20"/>
     <use x="1317.107422" xlink:href="#DejaVuSans-32"/>
     <use x="1380.730469" xlink:href="#DejaVuSans-30"/>
     <use x="1444.353516" xlink:href="#DejaVuSans-31"/>
     <use x="1507.976562" xlink:href="#DejaVuSans-34"/>
    </g>
   </g>
  </g>
 </g>
 <defs>
  <clipPath id="p3c4c3c74cc">
   <rect height="293.76" width="558" x="90" y="51.84"/>
  </clipPath>
 </defs>
</svg>
